<svg width="21" height="23" viewBox="0 0 21 23" fill="none" xmlns="http://www.w3.org/2000/svg">
<path fill-rule="evenodd" clip-rule="evenodd" d="M15.0817 5.12048C15.0628 5.03979 15.043 4.9589 15.0225 4.87795C14.7548 3.82186 14.3333 2.67431 13.6459 1.77048C12.9372 0.838501 11.9023 0.120483 10.49 0.120483C9.07769 0.120483 8.04279 0.838501 7.33405 1.77048C6.64672 2.67431 6.22517 3.82186 5.95746 4.87795C5.93694 4.9589 5.91721 5.03979 5.89824 5.12048H4.27556C2.67413 5.12048 1.34696 6.34503 1.24043 7.92093L0.496865 18.9209C0.379817 20.6525 1.77238 22.1205 3.532 22.1205H17.448C19.2076 22.1205 20.6002 20.6525 20.4831 18.9209L19.7395 7.92093C19.633 6.34503 18.3059 5.12048 16.7044 5.12048H15.0817ZM6.43417 10.1205C7.01515 10.1205 7.44615 9.68888 7.44813 9.11865C7.44829 9.09487 7.44857 9.07108 7.44898 9.0473C7.44987 8.99461 7.45169 8.91503 7.4554 8.81242C7.46284 8.607 7.47784 8.31048 7.508 7.95353C7.5294 7.70025 7.55823 7.41911 7.59692 7.12048H13.3831C13.4218 7.41911 13.4506 7.70025 13.472 7.95353C13.5021 8.31048 13.5171 8.607 13.5246 8.81242C13.5283 8.91503 13.5301 8.99461 13.531 9.0473C13.5314 9.07183 13.5318 9.09635 13.5319 9.12088C13.5319 9.12088 13.5319 10.1205 14.5458 10.1205C15.5598 10.1205 15.5598 9.11914 15.5598 9.11914C15.5597 9.08408 15.5592 9.04903 15.5586 9.01398C15.5575 8.94948 15.5554 8.85719 15.5512 8.74104C15.5428 8.50897 15.5261 8.18049 15.4929 7.78744C15.4756 7.5825 15.4537 7.3586 15.4258 7.12048H16.7044C17.2382 7.12048 17.6806 7.52867 17.7161 8.05396L18.4597 19.054C18.4987 19.6311 18.0345 20.1205 17.448 20.1205H3.532C2.94546 20.1205 2.48127 19.6311 2.52029 19.054L3.26385 8.05396C3.29936 7.52867 3.74175 7.12048 4.27556 7.12048H5.55413C5.52632 7.3586 5.5044 7.5825 5.48709 7.78744C5.45388 8.18049 5.43719 8.50897 5.42878 8.74104C5.42458 8.85719 5.42244 8.94948 5.42135 9.01398C5.42076 9.04833 5.42032 9.0827 5.42022 9.11706C5.41944 9.68765 5.85452 10.1205 6.43417 10.1205ZM7.98909 5.12048H12.9909C12.7565 4.2737 12.4378 3.51514 12.0236 2.97048C11.5916 2.40247 11.1056 2.12048 10.49 2.12048C9.87437 2.12048 9.38834 2.40247 8.95638 2.97048C8.54219 3.51514 8.22352 4.2737 7.98909 5.12048Z" fill="#151618"/>
</svg>
