<svg width="21" height="21" viewBox="0 0 21 21" fill="none" xmlns="http://www.w3.org/2000/svg">
<path d="M1.04367 0.67392C0.305756 1.41184 0.305756 2.60823 1.04367 3.34615L7.81801 10.1205L1.04367 16.8948C0.305753 17.6327 0.305755 18.8291 1.04367 19.567C1.78159 20.305 2.97799 20.305 3.71591 19.567L10.4902 12.7927L17.2646 19.567C18.0025 20.3049 19.1989 20.3049 19.9368 19.567C20.6747 18.8291 20.6747 17.6327 19.9368 16.8948L13.1625 10.1205L19.9368 3.34618C20.6747 2.60826 20.6747 1.41186 19.9368 0.673947C19.1989 -0.0639678 18.0025 -0.0639678 17.2646 0.673949L10.4902 7.44825L3.71591 0.67392C2.97799 -0.0639966 1.78159 -0.0639967 1.04367 0.67392Z" fill="#754E29"/>
</svg>
