<svg width="23" height="23" viewBox="0 0 23 23" fill="none" xmlns="http://www.w3.org/2000/svg">
<g id="icon">
<path id="icon_2" fill-rule="evenodd" clip-rule="evenodd" d="M19.49 0.120605C21.1468 0.120605 22.49 1.46375 22.49 3.12061V19.1206C22.49 20.7775 21.1468 22.1206 19.49 22.1206H3.48999C1.83314 22.1206 0.48999 20.7775 0.48999 19.1206V3.12061C0.48999 1.46375 1.83314 0.120605 3.48999 0.120605H19.49ZM19.49 2.12061C20.0423 2.12061 20.49 2.56832 20.49 3.12061V19.1206C20.49 19.6729 20.0423 20.1206 19.49 20.1206H14.49V13.1205H16.5662C16.9966 13.1205 17.3787 12.8451 17.5148 12.4368L17.9579 11.1077C18.1197 10.622 17.7583 10.1205 17.2463 10.1205H14.49V8.12052C14.49 7.62052 14.99 7.12052 15.49 7.12052H17.49C18.0423 7.12052 18.49 6.67281 18.49 6.12052V5.43454C18.49 5.11151 18.2836 4.8219 17.9713 4.73948C16.6605 4.39355 15.49 4.39355 15.49 4.39355C12.99 4.39355 11.49 6.12052 11.49 7.62052V10.1205H9.48999C8.93771 10.1205 8.48999 10.5682 8.48999 11.1205V12.1205C8.48999 12.6728 8.93771 13.1205 9.48999 13.1205H11.49V20.1206H3.48999C2.93771 20.1206 2.48999 19.6729 2.48999 19.1206V3.12061C2.48999 2.56832 2.93771 2.12061 3.48999 2.12061H19.49Z" fill="#151618"/>
</g>
</svg>
