<svg width="23" height="23" viewBox="0 0 23 23" fill="none" xmlns="http://www.w3.org/2000/svg">
<g id="icon">
<g id="icon_2">
<path fill-rule="evenodd" clip-rule="evenodd" d="M11.49 17.1206C14.8037 17.1206 17.49 14.4343 17.49 11.1206C17.49 7.8069 14.8037 5.12061 11.49 5.12061C8.17628 5.12061 5.48999 7.8069 5.48999 11.1206C5.48999 14.4343 8.17628 17.1206 11.49 17.1206ZM11.49 15.1206C13.6991 15.1206 15.49 13.3297 15.49 11.1206C15.49 8.91147 13.6991 7.12061 11.49 7.12061C9.28085 7.12061 7.48999 8.91147 7.48999 11.1206C7.48999 13.3297 9.28085 15.1206 11.49 15.1206Z" fill="#0F0F0F"/>
<path d="M17.49 4.12061C16.9377 4.12061 16.49 4.56832 16.49 5.12061C16.49 5.67289 16.9377 6.12061 17.49 6.12061C18.0423 6.12061 18.49 5.67289 18.49 5.12061C18.49 4.56832 18.0423 4.12061 17.49 4.12061Z" fill="#0F0F0F"/>
<path fill-rule="evenodd" clip-rule="evenodd" d="M1.14395 3.39666C0.48999 4.68013 0.48999 6.36029 0.48999 9.72061V12.5206C0.48999 15.8809 0.48999 17.5611 1.14395 18.8445C1.71919 19.9735 2.63707 20.8914 3.76605 21.4666C5.04952 22.1206 6.72968 22.1206 10.09 22.1206H12.89C16.2503 22.1206 17.9305 22.1206 19.2139 21.4666C20.3429 20.8914 21.2608 19.9735 21.836 18.8445C22.49 17.5611 22.49 15.8809 22.49 12.5206V9.72061C22.49 6.36029 22.49 4.68013 21.836 3.39666C21.2608 2.26769 20.3429 1.34981 19.2139 0.774566C17.9305 0.120605 16.2503 0.120605 12.89 0.120605H10.09C6.72968 0.120605 5.04952 0.120605 3.76605 0.774566C2.63707 1.34981 1.71919 2.26769 1.14395 3.39666ZM12.89 2.12061H10.09C8.37683 2.12061 7.21224 2.12216 6.31207 2.19571C5.43524 2.26735 4.98683 2.3972 4.67403 2.55658C3.92138 2.94007 3.30946 3.552 2.92596 4.30464C2.76658 4.61744 2.63673 5.06585 2.56509 5.94268C2.49155 6.84286 2.48999 8.00745 2.48999 9.72061V12.5206C2.48999 14.2338 2.49155 15.3984 2.56509 16.2985C2.63673 17.1754 2.76658 17.6238 2.92596 17.9366C3.30946 18.6892 3.92138 19.3011 4.67403 19.6846C4.98683 19.844 5.43524 19.9739 6.31207 20.0455C7.21224 20.1191 8.37683 20.1206 10.09 20.1206H12.89C14.6031 20.1206 15.7677 20.1191 16.6679 20.0455C17.5447 19.9739 17.9932 19.844 18.306 19.6846C19.0586 19.3011 19.6705 18.6892 20.054 17.9366C20.2134 17.6238 20.3432 17.1754 20.4149 16.2985C20.4884 15.3984 20.49 14.2338 20.49 12.5206V9.72061C20.49 8.00745 20.4884 6.84286 20.4149 5.94268C20.3432 5.06585 20.2134 4.61744 20.054 4.30464C19.6705 3.552 19.0586 2.94007 18.306 2.55658C17.9932 2.3972 17.5447 2.26735 16.6679 2.19571C15.7677 2.12216 14.6031 2.12061 12.89 2.12061Z" fill="#0F0F0F"/>
</g>
</g>
</svg>
