<svg width="74" height="106" viewBox="0 0 74 106" fill="none" xmlns="http://www.w3.org/2000/svg">
<path d="M46.5693 1.41026C45.8792 2.141 44.2439 3.68846 42.9386 4.87771C38.5877 8.80368 37.7025 10.2079 37.5825 13.4174C37.4924 16.0252 38.1226 18.0025 39.7579 20.252C40.193 20.8538 40.5531 21.3123 40.5531 21.255C40.5531 21.212 40.283 20.6532 39.953 20.0228C38.6927 17.6156 38.3176 14.6926 39.0078 12.615C39.6529 10.6664 40.5981 9.49144 43.7938 6.66876C44.4689 6.0813 45.2941 5.26458 45.6392 4.87771L46.2843 4.1613L46.1943 7.17025C46.1493 9.16188 46.0442 10.5374 45.8792 11.2538C45.3241 13.6753 44.2439 15.5953 42.2784 17.7016C40.8531 19.2347 40.4481 20.1087 40.8381 20.8251C40.8982 20.9541 41.0032 21.4986 41.0632 22.0144L41.1532 22.9601L40.298 23.5045C37.4024 25.3386 35.362 27.9893 34.5368 30.9983C34.3118 31.8007 34.2218 32.5744 34.2218 33.8209C34.2068 36.4717 34.7169 38.6783 36.0071 41.4579L36.6823 42.9194L36.4422 44.0657C36.2022 45.2263 36.1272 48.6794 36.3372 49.5821C36.4122 49.9403 36.5022 50.012 36.8773 50.012H37.3274L37.4324 48.1636C37.8225 41.5726 40.103 37.7469 45.4591 34.695C49.585 32.3451 50.8002 31.0269 53.5458 25.926C55.7063 21.8711 56.3964 20.7965 58.0618 18.7475L59.007 17.5869L57.6717 18.1314C55.5112 19.0198 52.4056 19.9081 48.6548 20.7105C45.054 21.4699 43.4187 21.9141 42.1734 22.5159C41.7833 22.7022 41.4233 22.8598 41.3783 22.8598C41.3333 22.8598 41.3182 22.2866 41.3633 21.5702C41.4383 20.0371 41.4533 20.0084 43.7788 17.6872C45.039 16.4407 45.5641 15.7816 45.9992 14.9649C46.9594 13.1452 47.0344 12.615 46.9294 9.10457C46.8244 5.80906 47.0044 3.65981 47.6046 1.26698C47.7546 0.65086 47.8746 0.135036 47.8596 0.120708C47.8446 0.10638 47.2595 0.693844 46.5693 1.41026ZM53.4858 23.8771C50.4702 29.1786 48.3697 31.4281 43.5537 34.5374C42.6085 35.1535 41.4983 35.9272 41.0932 36.2424C39.6079 37.4174 37.9125 39.7385 37.2674 41.4723C37.1174 41.8878 36.9523 42.1744 36.9073 42.1027C36.6673 41.7445 36.0221 38.8215 35.8721 37.4603C35.377 32.9469 37.1324 28.9923 40.8231 26.3416C42.9386 24.8084 44.859 24.1063 48.7298 23.4329C50.3801 23.1463 53.0057 22.4156 54.1309 21.9428C54.386 21.8425 54.596 21.7708 54.626 21.7851C54.641 21.7995 54.1309 22.7451 53.4858 23.8771Z" fill="#151618"/>
<path d="M20.1711 4.98885C21.0659 8.21718 21.3343 12.4499 20.9018 16.41C20.365 21.3457 20.8124 22.8379 24.0037 26.8985C24.8687 27.9889 25.838 29.4094 26.181 30.0407C27.1503 31.9203 27.6723 34.5891 27.6872 37.803V39.1374L27.3293 38.9939C26.4942 38.6926 24.988 38.5635 21.2001 38.4918C18.993 38.4487 16.7113 38.3483 16.1297 38.2909C15.563 38.2191 15.0709 38.1904 15.056 38.2048C15.0262 38.2191 15.3244 38.4487 15.7271 38.7213C17.4122 39.8835 19.1123 41.3901 21.0808 43.4706C22.244 44.6902 23.6309 46.0389 24.1827 46.455C26.5389 48.2485 29.2381 49.2959 32.5041 49.669C33.8462 49.8268 33.3093 49.3389 31.0426 48.392C27.4337 46.8711 25.6292 45.6371 22.8554 42.8105C21.8115 41.7488 20.5439 40.6153 20.0518 40.2853L19.157 39.7113H20.9168C25.5397 39.7113 28.1495 40.5722 30.3715 42.8249C31.4751 43.9297 32.2654 45.3071 32.6681 46.785C32.7874 47.2585 32.9216 47.6746 32.9664 47.7176C33.1155 47.8467 33.0707 46.0245 32.9067 45.0202C32.5637 42.9397 30.8338 40.644 28.8504 39.6396L27.9855 39.2092V36.8417C27.9855 32.1355 27.553 30.5142 25.2862 26.8411C22.2887 21.9627 21.7966 20.04 21.8861 13.2821C21.9159 11.1872 21.9607 9.46547 21.9756 9.47982C21.9756 9.49416 22.2887 9.89591 22.6467 10.3694C23.0195 10.8429 24.3467 12.2634 25.6143 13.526C28.6864 16.5821 29.8645 18.347 30.5952 21.0014C31.4154 23.914 30.7443 27.9889 28.8057 31.9203C28.4478 32.6521 28.1793 33.2547 28.1942 33.2547C28.2241 33.2547 28.4776 32.9103 28.7758 32.4799C31.1172 29.0937 32.2953 25.2771 32.1163 21.7044C32.0119 19.7531 31.6093 18.2322 30.7592 16.5391C29.8943 14.7886 28.8951 13.5547 26.002 10.6707C23.7502 8.41805 22.1993 6.75367 20.5738 4.91711L19.9474 4.1997L20.1711 4.98885Z" fill="#151618"/>
<path d="M47.0626 40.1562C43.6372 40.8551 41.3085 43.7648 41.2934 47.3306C41.2934 48.0438 41.2634 48.1008 40.8277 48.2434C40.0464 48.5002 40.6174 48.6286 43.0362 48.7284C46.4917 48.871 48.6101 48.4859 50.413 47.3734C50.9088 47.0739 52.1558 46.1182 53.1924 45.2482C55.2958 43.508 56.3775 42.7663 58.1503 41.8677L59.3372 41.2687L57.8949 41.1688C57.1137 41.1261 55.7165 40.9406 54.785 40.7837C53.8535 40.6268 52.3811 40.3701 51.5097 40.2275C49.6768 39.9137 48.3547 39.8851 47.0626 40.1562ZM52.0206 41.9391C52.7567 42.1102 53.8986 42.2956 54.5296 42.3384L55.7014 42.4383L54.0638 43.6935C51.5698 45.6047 49.9172 46.4748 47.7988 46.9883C46.7171 47.2593 41.8794 47.9582 41.7742 47.8583C41.639 47.73 42.0747 46.4035 42.6005 45.3623C43.517 43.5508 45.2447 42.2529 47.4232 41.7251C48.535 41.4541 50.2778 41.5397 52.0206 41.9391Z" fill="#151618"/>
<path d="M13.5465 55.761C13.366 63.5099 13.7871 66.1313 15.8176 70.0345C16.8854 72.0798 18.6151 74.4707 19.8484 75.5942C20.1492 75.8678 20.3899 76.1271 20.3899 76.1703C20.3899 76.2279 16.6448 76.2423 12.0875 76.2135C7.51521 76.1847 3.61972 76.2135 3.42419 76.2567C3.2437 76.2999 3.00306 76.5016 2.91281 76.6888C2.77745 76.9913 2.79249 77.0921 3.0181 77.3369C3.28883 77.625 3.45427 77.625 36.9645 77.625C59.9013 77.625 70.7305 77.5818 70.941 77.481C71.3321 77.2793 71.3321 76.5304 70.941 76.3287C70.7455 76.2423 67.6472 76.1847 61.9017 76.1847H53.1632L54.0806 75.1333C56.6977 72.1806 58.3973 68.9399 59.5103 64.8062C59.8261 63.6683 59.8562 63.1786 59.9013 57.4174L59.9765 51.2672H36.8141H13.6517L13.5465 55.761Z" fill="#151618"/>
<path d="M7.30414 79.5753C12.3863 81.8664 20.2201 83.7333 27.5276 84.398C28.8207 84.5253 29.4072 84.6243 29.1816 84.6809C28.8659 84.7657 28.8508 84.7799 29.1064 84.794C29.2718 84.8082 30.2943 84.8789 31.3618 84.9637C36.865 85.3456 48.6533 85.1193 48.3225 84.6243C48.2774 84.5536 48.2924 84.5253 48.3827 84.5677C48.4578 84.6102 48.7285 84.596 48.9691 84.5253C49.3901 84.4122 49.3901 84.4122 48.8037 84.3839C48.4428 84.3697 49.2096 84.2 50.6832 83.9596C55.2692 83.2242 59.0432 82.3332 62.1407 81.2583C63.9149 80.636 67.3582 79.2217 67.5988 78.9954C67.6739 78.9247 55.9308 78.8681 36.7748 78.8823L5.80054 78.8964L7.30414 79.5753Z" fill="#151618"/>
<path d="M6.31714 100.571H6.11499C6.10913 100.571 6.09155 100.574 6.06226 100.58C6.03882 100.586 6.01245 100.595 5.98315 100.606C5.95386 100.612 5.92456 100.618 5.89526 100.624C5.86597 100.63 5.84839 100.633 5.84253 100.633C5.5437 100.662 5.24194 100.68 4.93726 100.686C4.63257 100.697 4.32788 100.703 4.02319 100.703C3.95874 100.703 3.87671 100.7 3.7771 100.694C3.68335 100.694 3.59253 100.683 3.50464 100.659C3.41675 100.63 3.34058 100.589 3.27612 100.536C3.21167 100.483 3.17944 100.407 3.17944 100.308C3.17944 100.231 3.19702 100.155 3.23218 100.079C3.26733 100.003 3.31714 99.9502 3.38159 99.9209C3.44019 99.915 3.54272 99.9092 3.68921 99.9033C3.83569 99.8975 3.98804 99.8916 4.14624 99.8857C4.3103 99.874 4.46558 99.8652 4.61206 99.8594C4.75854 99.8477 4.86108 99.8359 4.91968 99.8242C4.95483 99.8242 5.00171 99.8242 5.0603 99.8242C5.1189 99.8184 5.17749 99.8096 5.23608 99.7979C5.30054 99.7803 5.3562 99.7598 5.40308 99.7363C5.45581 99.7129 5.49683 99.6807 5.52612 99.6396C5.59644 99.4932 5.63159 99.3379 5.63159 99.1738V98.9014V98.1982C5.63159 98.1807 5.63452 98.1396 5.64038 98.0752C5.6521 98.0107 5.66089 97.9404 5.66675 97.8643C5.67847 97.7881 5.69019 97.7148 5.7019 97.6445C5.71362 97.5742 5.71948 97.5303 5.71948 97.5127C5.74878 96.9033 5.76636 96.291 5.77222 95.6758C5.77808 95.0605 5.78101 94.4482 5.78101 93.8389C5.78101 93.5811 5.77808 93.3291 5.77222 93.083C5.76636 92.8369 5.76343 92.5908 5.76343 92.3447C5.76343 92.2568 5.76343 92.1133 5.76343 91.9141C5.76929 91.709 5.77222 91.498 5.77222 91.2812C5.77222 91.0586 5.77222 90.8506 5.77222 90.6572C5.77808 90.458 5.78101 90.3203 5.78101 90.2441C5.75171 90.127 5.71069 90.0303 5.65796 89.9541C5.61108 89.8721 5.54663 89.793 5.4646 89.7168C5.4353 89.7109 5.38257 89.7051 5.3064 89.6992C5.23608 89.6875 5.15991 89.6787 5.07788 89.6729C5.00171 89.6611 4.92554 89.6523 4.84937 89.6465C4.77905 89.6406 4.72925 89.6377 4.69995 89.6377C4.68823 89.6377 4.65894 89.6436 4.61206 89.6553C4.57104 89.6611 4.52417 89.6699 4.47144 89.6816C4.42456 89.6875 4.37769 89.6963 4.33081 89.708C4.28394 89.7139 4.25464 89.7168 4.24292 89.7168C4.20776 89.7227 4.13452 89.7256 4.02319 89.7256C3.91772 89.7256 3.80347 89.7256 3.68042 89.7256C3.56323 89.7256 3.4519 89.7256 3.34644 89.7256C3.24097 89.7256 3.16479 89.7227 3.11792 89.7168C3.03003 89.752 2.93335 89.7783 2.82788 89.7959C2.72241 89.8076 2.6228 89.8457 2.52905 89.9102C2.52905 89.9219 2.51147 89.9453 2.47632 89.9805C2.44116 90.0156 2.41772 90.0391 2.40601 90.0508C2.35913 90.1035 2.29468 90.1768 2.21265 90.2705C2.13647 90.3584 2.0603 90.4492 1.98413 90.543C1.90796 90.6367 1.83765 90.7188 1.77319 90.7891C1.7146 90.8594 1.68237 90.8975 1.67651 90.9033C1.6355 90.9561 1.59448 91.0293 1.55347 91.123C1.51831 91.2109 1.47729 91.2988 1.43042 91.3867C1.38354 91.4688 1.32788 91.542 1.26343 91.6064C1.19897 91.6709 1.11987 91.7031 1.02612 91.7031C0.955811 91.7031 0.906006 91.6855 0.876709 91.6504C0.847412 91.6094 0.823975 91.5625 0.806396 91.5098C0.806396 91.4922 0.806396 91.4658 0.806396 91.4307C0.806396 91.3896 0.803467 91.3486 0.797607 91.3076C0.797607 91.2607 0.797607 91.2168 0.797607 91.1758C0.797607 91.1289 0.797607 91.0967 0.797607 91.0791C0.797607 91.0615 0.797607 91.0352 0.797607 91C0.797607 90.959 0.797607 90.9209 0.797607 90.8857C0.803467 90.8447 0.806396 90.8096 0.806396 90.7803C0.806396 90.7451 0.806396 90.7246 0.806396 90.7188C0.812256 90.7012 0.823975 90.6572 0.841553 90.5869C0.86499 90.5107 0.888428 90.4316 0.911865 90.3496C0.935303 90.2676 0.955811 90.1914 0.973389 90.1211C0.996826 90.0508 1.0144 90.0068 1.02612 89.9893C1.02612 89.9717 1.03198 89.9336 1.0437 89.875C1.05542 89.8164 1.06714 89.7549 1.07886 89.6904C1.09644 89.6201 1.11108 89.5586 1.1228 89.5059C1.13452 89.4473 1.14331 89.4092 1.14917 89.3916C1.14917 89.3799 1.15796 89.3477 1.17554 89.2949C1.19897 89.2422 1.22241 89.1836 1.24585 89.1191C1.26929 89.0547 1.28979 88.9961 1.30737 88.9434C1.33081 88.8906 1.34253 88.8584 1.34253 88.8467C1.36011 88.7998 1.37769 88.7471 1.39526 88.6885C1.4187 88.624 1.44507 88.5654 1.47437 88.5127C1.50952 88.46 1.55054 88.416 1.59741 88.3809C1.64429 88.3398 1.69995 88.3193 1.7644 88.3193C1.86401 88.3193 1.94312 88.3457 2.00171 88.3984C2.06616 88.4512 2.12476 88.5098 2.17749 88.5742C2.23022 88.6387 2.28296 88.7061 2.33569 88.7764C2.38843 88.8408 2.45288 88.8848 2.52905 88.9082C2.6521 88.9082 2.78101 88.9053 2.91577 88.8994C3.05054 88.8936 3.1853 88.8906 3.32007 88.8906C3.57202 88.8906 3.82104 88.8965 4.06714 88.9082C4.31323 88.9199 4.5564 88.9463 4.79663 88.9873C4.79663 88.9873 4.80835 88.9932 4.83179 89.0049C4.85522 89.0107 4.87866 89.0195 4.9021 89.0312C4.9314 89.0371 4.95776 89.043 4.9812 89.0488C5.0105 89.0547 5.02808 89.0576 5.03394 89.0576H5.31519C5.46753 89.0576 5.60522 89.043 5.72827 89.0137C5.85718 88.9844 6.00073 88.9697 6.15894 88.9697C6.18237 88.9697 6.2146 88.9697 6.25562 88.9697C6.30249 88.9697 6.34937 88.9697 6.39624 88.9697C6.44312 88.9697 6.48413 88.9727 6.51929 88.9785C6.55444 88.9785 6.57788 88.9814 6.5896 88.9873C6.61304 88.9873 6.65991 88.9932 6.73022 89.0049C6.8064 89.0107 6.88843 89.0195 6.97632 89.0312C7.06421 89.0371 7.14331 89.043 7.21362 89.0488C7.28979 89.0547 7.3396 89.0576 7.36304 89.0576C7.40991 89.04 7.46558 89.0254 7.53003 89.0137C7.60034 89.002 7.69116 88.9932 7.80249 88.9873C7.91968 88.9814 8.06616 88.9785 8.24194 88.9785C8.41772 88.9727 8.63745 88.9697 8.90112 88.9697L10.4919 88.9873C10.5916 88.9873 10.6941 88.9551 10.7996 88.8906C10.905 88.8203 11.0105 88.7412 11.116 88.6533C11.2214 88.5596 11.324 88.4688 11.4236 88.3809C11.5291 88.293 11.6316 88.2314 11.7312 88.1963H11.8367C12.0066 88.1963 12.1267 88.2871 12.197 88.4688C12.2029 88.5391 12.2146 88.6709 12.2322 88.8643C12.2498 89.0518 12.2673 89.251 12.2849 89.4619C12.3083 89.6729 12.3318 89.8721 12.3552 90.0596C12.3787 90.2471 12.3962 90.3789 12.408 90.4551C12.408 90.4668 12.4109 90.4873 12.4167 90.5166C12.4226 90.5459 12.4285 90.5811 12.4343 90.6221C12.446 90.6572 12.4548 90.6924 12.4607 90.7275C12.4666 90.7568 12.4695 90.7744 12.4695 90.7803V90.9121C12.4695 91.0645 12.4636 91.2021 12.4519 91.3252C12.4402 91.4482 12.4255 91.5889 12.408 91.7471C12.3845 91.7939 12.3552 91.8262 12.3201 91.8438C12.2908 91.8555 12.2615 91.8613 12.2322 91.8613C12.2146 91.8613 12.197 91.8525 12.1794 91.835C12.1619 91.8291 12.1472 91.8203 12.1355 91.8086C12.0476 91.7676 11.9714 91.709 11.907 91.6328C11.8484 91.5566 11.7957 91.4746 11.7488 91.3867C11.7078 91.2988 11.6697 91.208 11.6345 91.1143C11.5994 91.0146 11.5642 90.9238 11.5291 90.8418C11.4294 90.5898 11.2654 90.3877 11.0369 90.2354C10.8142 90.083 10.5828 89.9541 10.3425 89.8486C10.1902 89.7842 10.0408 89.752 9.89429 89.752C9.7478 89.752 9.5896 89.7402 9.41968 89.7168C9.40796 89.7168 9.36401 89.7051 9.28784 89.6816C9.21753 89.6523 9.17065 89.6377 9.14722 89.6377H8.75171H8.30347C8.25659 89.6377 8.18921 89.6494 8.10132 89.6729C8.01343 89.6904 7.96655 89.7051 7.96069 89.7168C7.94312 89.7402 7.92261 89.7637 7.89917 89.7871C7.85815 89.8398 7.83179 89.8809 7.82007 89.9102C7.79663 89.9512 7.77026 90.0068 7.74097 90.0771C7.71167 90.1416 7.69702 90.1768 7.69702 90.1826C7.69116 90.2002 7.6853 90.2324 7.67944 90.2793C7.67358 90.3203 7.66772 90.3643 7.66187 90.4111C7.66187 90.458 7.65894 90.5049 7.65308 90.5518C7.64722 90.5928 7.64136 90.6221 7.6355 90.6396C7.6355 90.7334 7.63843 90.8945 7.64429 91.123C7.65015 91.3516 7.65308 91.5977 7.65308 91.8613C7.65308 92.125 7.65015 92.374 7.64429 92.6084C7.63843 92.8369 7.6355 92.9922 7.6355 93.0742C7.6355 93.373 7.61206 93.666 7.56519 93.9531C7.52417 94.2344 7.50366 94.5244 7.50366 94.8232C7.50366 95.1455 7.51245 95.4678 7.53003 95.79C7.55347 96.1064 7.56519 96.4316 7.56519 96.7656C7.56519 97.1699 7.55347 97.5771 7.53003 97.9873C7.51245 98.3975 7.50366 98.8076 7.50366 99.2178C7.50366 99.3408 7.53003 99.4375 7.58276 99.5078C7.64136 99.5781 7.7146 99.6309 7.80249 99.666C7.89038 99.7012 7.98706 99.7246 8.09253 99.7363C8.20386 99.748 8.30933 99.7568 8.40894 99.7627C8.45581 99.7686 8.52905 99.7744 8.62866 99.7803C8.73413 99.7861 8.84253 99.792 8.95386 99.7979C9.07104 99.8037 9.17944 99.8096 9.27905 99.8154C9.37866 99.8213 9.44897 99.8242 9.48999 99.8242C9.60132 99.8652 9.68335 99.9297 9.73608 100.018C9.79468 100.105 9.82397 100.202 9.82397 100.308C9.82397 100.442 9.78589 100.548 9.70972 100.624C9.63354 100.694 9.53687 100.768 9.41968 100.844H9.4021C9.1853 100.844 8.98315 100.826 8.79565 100.791C8.61401 100.762 8.42065 100.732 8.21558 100.703C7.58862 100.615 6.95581 100.571 6.31714 100.571ZM13.1638 100.677C13.1638 100.653 13.1462 100.621 13.1111 100.58C13.0818 100.533 13.0642 100.495 13.0583 100.466V100.431V100.422C13.0701 100.398 13.0964 100.363 13.1375 100.316C13.1785 100.27 13.2224 100.223 13.2693 100.176C13.322 100.123 13.3689 100.076 13.4099 100.035C13.4568 99.9941 13.489 99.9648 13.5066 99.9473C13.5183 99.9355 13.5564 99.9238 13.6208 99.9121C13.6912 99.8945 13.741 99.8857 13.7703 99.8857H14.3943C14.4119 99.8857 14.4353 99.8828 14.4646 99.877C14.4998 99.8652 14.532 99.8564 14.5613 99.8506C14.5964 99.8389 14.6257 99.8271 14.6492 99.8154C14.6785 99.8037 14.6931 99.7979 14.6931 99.7979C14.7751 99.7568 14.822 99.6924 14.8337 99.6045C14.8513 99.5107 14.8601 99.4229 14.8601 99.3408V99.2002C14.8601 98.9951 14.8542 98.8018 14.8425 98.6201C14.8367 98.4326 14.8337 98.2363 14.8337 98.0312V97.9697C14.8337 97.9521 14.8367 97.9199 14.8425 97.873C14.8484 97.8262 14.8542 97.7764 14.8601 97.7236C14.8718 97.665 14.8835 97.6123 14.8953 97.5654C14.907 97.5186 14.9158 97.4863 14.9216 97.4688V93.6367C14.9216 93.5195 14.9011 93.4258 14.8601 93.3555C14.8191 93.2852 14.7664 93.2324 14.7019 93.1973C14.6375 93.1562 14.5613 93.1299 14.4734 93.1182C14.3914 93.1064 14.3035 93.1006 14.2097 93.1006H13.8494C13.6853 93.1006 13.5476 93.0801 13.4363 93.0391C13.325 92.998 13.2693 92.8984 13.2693 92.7402C13.2693 92.6875 13.2693 92.6406 13.2693 92.5996C13.2751 92.5586 13.2898 92.5029 13.3132 92.4326C13.5945 92.4443 13.8699 92.4355 14.1394 92.4062C14.4089 92.377 14.6814 92.3623 14.9568 92.3623H15.1853C15.2087 92.3682 15.2556 92.374 15.3259 92.3799C15.4021 92.3857 15.4783 92.3916 15.5544 92.3975C15.6365 92.4033 15.7126 92.4092 15.783 92.415C15.8533 92.4209 15.9031 92.4268 15.9324 92.4326H20.0632C20.239 92.4326 20.365 92.4795 20.4412 92.5732C20.5173 92.6611 20.573 92.7725 20.6082 92.9072V93.4082V93.9268C20.6082 93.9619 20.6023 94.0264 20.5906 94.1201C20.5789 94.208 20.5642 94.3047 20.5466 94.4102C20.5349 94.5098 20.5203 94.6094 20.5027 94.709C20.491 94.8027 20.4822 94.8701 20.4763 94.9111C20.4646 94.9287 20.4441 94.9551 20.4148 94.9902C20.3855 95.0195 20.365 95.0342 20.3533 95.0342C20.3533 95.0459 20.3474 95.0518 20.3357 95.0518H20.3269H20.3005C20.283 95.0518 20.2742 95.0459 20.2742 95.0342C20.1746 94.9639 20.0984 94.8848 20.0457 94.7969C19.9929 94.7031 19.949 94.6064 19.9138 94.5068C19.8787 94.4072 19.8464 94.3076 19.8171 94.208C19.7878 94.1084 19.7439 94.0146 19.6853 93.9268C19.6736 93.9033 19.6355 93.8652 19.571 93.8125C19.5125 93.7539 19.4802 93.7217 19.4744 93.7158C19.4626 93.7041 19.4363 93.6719 19.3953 93.6191C19.3601 93.5664 19.3191 93.5107 19.2722 93.4521C19.2312 93.3877 19.1902 93.3291 19.1492 93.2764C19.114 93.2236 19.0906 93.1914 19.0789 93.1797C19.0554 93.127 19.0291 93.1006 18.9998 93.1006C18.9939 93.1006 18.9734 93.0977 18.9382 93.0918C18.9089 93.0859 18.8738 93.0801 18.8328 93.0742C18.7976 93.0625 18.7625 93.0537 18.7273 93.0479C18.698 93.042 18.6833 93.0361 18.6833 93.0303C18.6658 93.0303 18.6335 93.0244 18.5867 93.0127C18.5398 93.001 18.4871 92.9893 18.4285 92.9775C18.3757 92.9658 18.3259 92.9541 18.2791 92.9424C18.2322 92.9248 18.2029 92.9131 18.1912 92.9072H18.1472C18.1238 92.9072 18.0916 92.916 18.0505 92.9336C18.0095 92.9453 17.9802 92.9512 17.9626 92.9512H17.9363C17.9187 92.9453 17.8689 92.9395 17.7869 92.9336C17.7107 92.9277 17.6257 92.9248 17.532 92.9248C17.4382 92.9189 17.3503 92.916 17.2683 92.916C17.1921 92.9102 17.1453 92.9072 17.1277 92.9072H17.1013C16.9958 92.9072 16.908 92.9277 16.8376 92.9688C16.7673 93.0098 16.7087 93.0625 16.6619 93.127C16.6208 93.1914 16.5828 93.2646 16.5476 93.3467C16.5183 93.4229 16.489 93.499 16.4597 93.5752C16.4539 93.6396 16.4421 93.7451 16.4246 93.8916C16.4128 94.0381 16.3982 94.1934 16.3806 94.3574C16.3689 94.5215 16.3572 94.6768 16.3455 94.8232C16.3337 94.9697 16.3279 95.0723 16.3279 95.1309V95.2012V95.2451C16.3279 95.2744 16.3308 95.3242 16.3367 95.3945C16.3425 95.4648 16.3484 95.541 16.3542 95.623C16.3601 95.6992 16.366 95.7754 16.3718 95.8516C16.3835 95.9219 16.3923 95.9688 16.3982 95.9922C16.4392 96.0449 16.4861 96.0977 16.5388 96.1504C16.5974 96.2031 16.6589 96.2383 16.7234 96.2559H17.2068C17.406 96.2559 17.5789 96.2529 17.7253 96.2471C17.8777 96.2412 18.0593 96.2236 18.2703 96.1943C18.2761 96.1826 18.2849 96.1621 18.2966 96.1328C18.3083 96.1035 18.323 96.0742 18.3406 96.0449C18.3582 96.0156 18.3728 95.9893 18.3845 95.9658C18.3962 95.9424 18.405 95.9277 18.4109 95.9219C18.4343 95.8809 18.4636 95.8223 18.4988 95.7461C18.5339 95.6641 18.5691 95.585 18.6042 95.5088C18.6394 95.4268 18.6687 95.3564 18.6921 95.2979C18.7214 95.2393 18.739 95.207 18.7449 95.2012C18.7566 95.1777 18.7683 95.1279 18.78 95.0518C18.7917 94.9697 18.8035 94.9229 18.8152 94.9111C18.8621 94.8584 18.9236 94.8232 18.9998 94.8057C19.0759 94.7881 19.1521 94.7793 19.2283 94.7793C19.3103 94.7793 19.3601 94.8115 19.3777 94.876C19.4011 94.9346 19.4128 95.002 19.4128 95.0781V95.2979V95.4033C19.4128 95.4561 19.407 95.5088 19.3953 95.5615C19.3835 95.6084 19.363 95.6553 19.3337 95.7021C19.3279 95.7549 19.322 95.8428 19.3162 95.9658C19.3103 96.0889 19.3044 96.2178 19.2986 96.3525C19.2927 96.4873 19.2869 96.6162 19.281 96.7393C19.2751 96.8564 19.2722 96.9385 19.2722 96.9854V97.2139V97.7412C19.2664 97.7529 19.2605 97.7793 19.2546 97.8203C19.2488 97.8613 19.2429 97.9082 19.2371 97.9609C19.2371 98.0078 19.2341 98.0547 19.2283 98.1016C19.2224 98.1484 19.2166 98.1807 19.2107 98.1982C19.1462 98.2451 19.0876 98.2803 19.0349 98.3037C18.988 98.3271 18.9294 98.3389 18.8591 98.3389C18.8123 98.3389 18.7683 98.3213 18.7273 98.2861C18.6863 98.2451 18.6482 98.1953 18.613 98.1367C18.5779 98.0781 18.5486 98.0195 18.5251 97.9609C18.5017 97.8965 18.4871 97.8379 18.4812 97.7852C18.4753 97.7676 18.4666 97.7295 18.4548 97.6709C18.449 97.6064 18.4431 97.5391 18.4373 97.4688C18.4314 97.3926 18.4255 97.3223 18.4197 97.2578C18.4138 97.1934 18.4109 97.1465 18.4109 97.1172C18.3933 97.0938 18.3611 97.0732 18.3142 97.0557C18.2732 97.0322 18.2322 97.0088 18.1912 96.9854C18.156 96.9736 18.1003 96.959 18.0242 96.9414C17.948 96.9238 17.866 96.9092 17.7781 96.8975C17.696 96.8799 17.6169 96.8682 17.5408 96.8623C17.4705 96.8506 17.4236 96.8447 17.4001 96.8447C17.3826 96.8447 17.3503 96.8447 17.3035 96.8447C17.2625 96.8389 17.2126 96.8359 17.1541 96.8359C17.1013 96.8359 17.0486 96.8359 16.9958 96.8359C16.9431 96.8301 16.9021 96.8271 16.8728 96.8271C16.8552 96.8271 16.8259 96.8301 16.7849 96.8359C16.7498 96.8359 16.7117 96.8359 16.6707 96.8359C16.6355 96.8359 16.6033 96.8389 16.574 96.8447C16.5447 96.8447 16.5271 96.8447 16.5212 96.8447L16.3982 96.9854V97.2842C16.3982 97.6299 16.3865 97.9639 16.363 98.2861C16.3396 98.6025 16.3279 98.9336 16.3279 99.2793C16.3279 99.4551 16.3425 99.584 16.3718 99.666C16.4011 99.748 16.448 99.8066 16.5125 99.8418C16.5769 99.877 16.6589 99.9033 16.7585 99.9209C16.8582 99.9385 16.9812 99.9678 17.1277 100.009C17.1394 100.009 17.1599 100.018 17.1892 100.035C17.2185 100.053 17.239 100.07 17.2507 100.088H17.9363H18.5867C18.5984 100.088 18.6248 100.085 18.6658 100.079C18.7068 100.067 18.7507 100.059 18.7976 100.053C18.8445 100.041 18.8855 100.032 18.9207 100.026C18.9617 100.015 18.988 100.009 18.9998 100.009H19.4216H19.5886C19.6003 100.009 19.6208 100 19.6501 99.9824C19.6794 99.959 19.7087 99.9355 19.738 99.9121C19.7732 99.8828 19.8025 99.8564 19.8259 99.833C19.8494 99.8096 19.864 99.7979 19.8699 99.7979C19.9109 99.7803 19.9431 99.7715 19.9666 99.7715C19.9958 99.7656 20.0193 99.7627 20.0369 99.7627C20.0544 99.7568 20.072 99.748 20.0896 99.7363C20.1072 99.7188 20.1248 99.6924 20.1423 99.6572C20.2068 99.5635 20.2537 99.4668 20.283 99.3672C20.3123 99.2676 20.3503 99.168 20.3972 99.0684C20.4207 99.0508 20.45 99.0156 20.4851 98.9629C20.5203 98.9043 20.5408 98.8662 20.5466 98.8486C20.5525 98.8486 20.5701 98.8398 20.5994 98.8223C20.6287 98.7988 20.658 98.7754 20.6873 98.752C20.7166 98.7227 20.7429 98.6963 20.7664 98.6729C20.7898 98.6436 20.8044 98.623 20.8103 98.6113C20.8162 98.5938 20.8279 98.5703 20.8455 98.541C20.8689 98.5059 20.8923 98.4707 20.9158 98.4355C20.9392 98.3945 20.9597 98.3594 20.9773 98.3301C21.0007 98.2949 21.0154 98.2715 21.0212 98.2598C21.0212 98.2539 21.03 98.2422 21.0476 98.2246C21.0593 98.2188 21.071 98.21 21.0828 98.1982C21.0828 98.1865 21.0857 98.1807 21.0916 98.1807H21.1091C21.197 98.1807 21.2498 98.2158 21.2673 98.2861C21.2849 98.3506 21.2937 98.418 21.2937 98.4883V98.6729C21.2937 98.7021 21.2966 98.7725 21.3025 98.8838C21.3083 98.9951 21.3113 99.1152 21.3113 99.2441C21.3171 99.3672 21.323 99.4844 21.3289 99.5957C21.3347 99.707 21.3376 99.7744 21.3376 99.7979V99.8242C21.3376 99.9004 21.323 99.9883 21.2937 100.088C21.2644 100.182 21.2234 100.272 21.1707 100.36C21.1179 100.448 21.0535 100.521 20.9773 100.58C20.907 100.639 20.8308 100.671 20.7488 100.677C20.7078 100.671 20.6316 100.665 20.5203 100.659C20.4148 100.653 20.3005 100.647 20.1775 100.642C20.0544 100.636 19.9373 100.63 19.8259 100.624C19.7146 100.618 19.6355 100.609 19.5886 100.598H19.4216H19.2722C19.2429 100.609 19.1755 100.621 19.0701 100.633C18.9646 100.639 18.8503 100.645 18.7273 100.65C18.6101 100.656 18.4958 100.662 18.3845 100.668C18.2791 100.674 18.2146 100.677 18.1912 100.677H14.8601C14.8425 100.683 14.8132 100.688 14.7722 100.694C14.7371 100.7 14.696 100.703 14.6492 100.703C14.6082 100.709 14.5671 100.712 14.5261 100.712C14.4851 100.718 14.4558 100.721 14.4382 100.721C14.4382 100.732 14.4177 100.738 14.3767 100.738C14.3357 100.738 14.2976 100.735 14.2625 100.729C14.2273 100.724 14.2039 100.721 14.1921 100.721C14.1687 100.738 14.1218 100.759 14.0515 100.782C13.9812 100.806 13.9314 100.817 13.9021 100.817C13.8728 100.817 13.823 100.812 13.7527 100.8C13.6882 100.788 13.6179 100.773 13.5417 100.756C13.4656 100.744 13.3923 100.729 13.322 100.712C13.2517 100.7 13.199 100.688 13.1638 100.677ZM24.783 97.1963C24.783 97.2783 24.821 97.3369 24.8972 97.3721C24.9734 97.4072 25.0437 97.4248 25.1082 97.4248H25.574C25.6384 97.4248 25.7029 97.4277 25.7673 97.4336C25.8318 97.4395 25.8962 97.4424 25.9607 97.4424C26.113 97.4424 26.2449 97.4189 26.3562 97.3721C26.4675 97.3193 26.5232 97.2051 26.5232 97.0293V96.8799C26.4705 96.6104 26.3914 96.3438 26.2859 96.0801C26.1804 95.8105 26.0808 95.5498 25.9871 95.2979C25.9753 95.2568 25.9578 95.2129 25.9343 95.166C25.9167 95.1133 25.8933 95.0664 25.864 95.0254C25.8347 94.9785 25.8025 94.9404 25.7673 94.9111C25.7322 94.8818 25.6941 94.8672 25.6531 94.8672C25.5769 94.8672 25.5154 94.8994 25.4685 94.9639C25.4275 95.0283 25.3923 95.1045 25.363 95.1924C25.3396 95.2803 25.3191 95.3711 25.3015 95.4648C25.2839 95.5527 25.2634 95.623 25.24 95.6758C25.2224 95.7285 25.1902 95.8223 25.1433 95.957C25.1023 96.0918 25.0583 96.2354 25.0115 96.3877C24.9646 96.5342 24.9177 96.6748 24.8708 96.8096C24.8298 96.9443 24.8005 97.0381 24.783 97.0908V97.1963ZM22.7351 100.633H22.6912C22.6794 100.633 22.6501 100.639 22.6033 100.65C22.5564 100.656 22.5037 100.665 22.4451 100.677C22.3865 100.683 22.3308 100.688 22.2781 100.694C22.2312 100.7 22.2019 100.703 22.1902 100.703H22.1375C22.1023 100.703 22.073 100.688 22.0496 100.659C22.0261 100.63 22.0085 100.598 21.9968 100.562C21.9851 100.521 21.9792 100.483 21.9792 100.448C21.9734 100.407 21.9705 100.381 21.9705 100.369V100.343C21.9705 100.237 22.0056 100.167 22.0759 100.132C22.1521 100.097 22.2253 100.064 22.2957 100.035C22.3074 100.035 22.3367 100.026 22.3835 100.009C22.4304 99.9854 22.4802 99.9619 22.533 99.9385C22.5916 99.915 22.6443 99.8945 22.6912 99.877C22.738 99.8535 22.7673 99.8359 22.7791 99.8242C22.7849 99.8184 22.8025 99.8037 22.8318 99.7803C22.8611 99.751 22.8933 99.7188 22.9285 99.6836C22.9636 99.6484 22.9958 99.6133 23.0251 99.5781C23.0603 99.543 23.0896 99.5137 23.113 99.4902C23.1189 99.4785 23.1277 99.4639 23.1394 99.4463C23.1628 99.4111 23.1746 99.3848 23.1746 99.3672C23.1746 99.3555 23.1804 99.3203 23.1921 99.2617C23.2097 99.2031 23.2244 99.168 23.2361 99.1562C23.3943 98.8398 23.5525 98.5205 23.7107 98.1982C23.8689 97.8701 24.0183 97.542 24.1589 97.2139C24.1765 97.1963 24.2 97.1465 24.2292 97.0645C24.2644 96.9766 24.2878 96.915 24.2996 96.8799C24.3054 96.8682 24.3201 96.833 24.3435 96.7744C24.3669 96.71 24.3904 96.6455 24.4138 96.5811C24.4373 96.5107 24.4578 96.4463 24.4753 96.3877C24.4988 96.3291 24.5105 96.2939 24.5105 96.2822C24.5164 96.2646 24.5339 96.2236 24.5632 96.1592C24.5984 96.0947 24.6335 96.0244 24.6687 95.9482C24.7097 95.8721 24.7449 95.7988 24.7742 95.7285C24.8093 95.6582 24.8328 95.6143 24.8445 95.5967C24.8914 95.4912 24.9353 95.3975 24.9763 95.3154C25.0232 95.2275 25.0671 95.125 25.1082 95.0078C25.1316 94.9609 25.1609 94.9082 25.196 94.8496C25.2371 94.791 25.2751 94.7295 25.3103 94.665C25.3455 94.5947 25.3748 94.5273 25.3982 94.4629C25.4275 94.3984 25.4421 94.3369 25.4421 94.2783V94.1553C25.4421 94.1318 25.4333 94.0938 25.4158 94.041C25.4041 93.9824 25.3982 93.9502 25.3982 93.9443C25.3982 93.9033 25.4216 93.8506 25.4685 93.7861C25.5154 93.7217 25.5505 93.6807 25.574 93.6631C25.5857 93.6572 25.6121 93.6455 25.6531 93.6279C25.7 93.6104 25.7468 93.5898 25.7937 93.5664C25.8406 93.543 25.8816 93.5225 25.9167 93.5049C25.9578 93.4873 25.9812 93.4756 25.9871 93.4697C25.9988 93.458 26.0222 93.4346 26.0574 93.3994C26.0925 93.3643 26.1306 93.3262 26.1716 93.2852C26.2185 93.2383 26.2595 93.1943 26.2947 93.1533C26.3357 93.1064 26.365 93.0742 26.3826 93.0566C26.3884 93.0508 26.4001 93.0332 26.4177 93.0039C26.4353 92.9688 26.4558 92.9365 26.4792 92.9072C26.5027 92.8721 26.5291 92.8428 26.5583 92.8193C26.5876 92.79 26.6199 92.7783 26.655 92.7842C26.7136 92.8018 26.7634 92.8545 26.8044 92.9424C26.8513 93.0303 26.8894 93.127 26.9187 93.2324C26.9539 93.332 26.9832 93.4316 27.0066 93.5312C27.03 93.625 27.0505 93.6895 27.0681 93.7246C27.074 93.7539 27.0828 93.7949 27.0945 93.8477C27.1121 93.9004 27.1267 93.9531 27.1384 94.0059C27.156 94.0586 27.1707 94.1055 27.1824 94.1465C27.1941 94.1875 27.2 94.2109 27.2 94.2168C27.2058 94.2344 27.2146 94.2754 27.2263 94.3398C27.238 94.4043 27.2498 94.4746 27.2615 94.5508C27.2791 94.627 27.2937 94.6973 27.3054 94.7617C27.3171 94.8203 27.323 94.8555 27.323 94.8672C27.3289 94.8848 27.3435 94.9404 27.3669 95.0342C27.3962 95.1279 27.4285 95.2363 27.4636 95.3594C27.4988 95.4824 27.5339 95.6055 27.5691 95.7285C27.6042 95.8457 27.6335 95.9395 27.657 96.0098C27.7039 96.168 27.7625 96.3262 27.8328 96.4844C27.9031 96.6367 27.9558 96.792 27.991 96.9502C28.0203 97.085 28.0378 97.1934 28.0437 97.2754C28.0554 97.3516 28.0847 97.4453 28.1316 97.5566C28.1375 97.5684 28.1492 97.5947 28.1667 97.6357C28.1902 97.6709 28.2136 97.7119 28.2371 97.7588C28.2605 97.7998 28.281 97.8408 28.2986 97.8818C28.3162 97.9229 28.3279 97.9521 28.3337 97.9697C28.3337 97.9814 28.3367 98.002 28.3425 98.0312C28.3484 98.0605 28.3542 98.0957 28.3601 98.1367C28.3718 98.1719 28.3806 98.207 28.3865 98.2422C28.3923 98.2715 28.3982 98.292 28.4041 98.3037C28.4041 98.3096 28.4099 98.3301 28.4216 98.3652C28.4333 98.3945 28.448 98.4297 28.4656 98.4707C28.4832 98.5059 28.4978 98.541 28.5095 98.5762C28.5271 98.6055 28.5388 98.6201 28.5447 98.6201C28.574 98.7725 28.6121 98.9365 28.6589 99.1123C28.7058 99.2881 28.7791 99.4434 28.8787 99.5781C28.9255 99.6484 29.0105 99.707 29.1335 99.7539C29.2625 99.8008 29.3914 99.8477 29.5203 99.8945C29.655 99.9414 29.7722 99.9941 29.8718 100.053C29.9714 100.111 30.0212 100.188 30.0212 100.281C30.0212 100.381 29.9949 100.46 29.9421 100.519C29.8953 100.571 29.8337 100.612 29.7576 100.642C29.6814 100.671 29.5964 100.688 29.5027 100.694C29.4089 100.7 29.321 100.703 29.239 100.703H29.0632H28.8787C28.7849 100.703 28.6208 100.7 28.3865 100.694C28.1521 100.688 27.9001 100.683 27.6306 100.677C27.3669 100.665 27.115 100.656 26.8748 100.65C26.6404 100.639 26.4763 100.633 26.3826 100.633C26.3181 100.609 26.28 100.583 26.2683 100.554C26.2566 100.519 26.2507 100.469 26.2507 100.404V100.343C26.2507 100.331 26.2537 100.319 26.2595 100.308C26.3123 100.196 26.3855 100.123 26.4792 100.088C26.573 100.047 26.6697 100.015 26.7693 99.9912C26.8748 99.9678 26.9773 99.9414 27.0769 99.9121C27.1765 99.877 27.2585 99.8066 27.323 99.7012L27.3406 99.6396L27.323 99.5781C27.3171 99.5254 27.3025 99.4521 27.2791 99.3584C27.2615 99.2646 27.241 99.1709 27.2175 99.0771C27.2 98.9834 27.1824 98.9014 27.1648 98.8311C27.1472 98.7549 27.1355 98.7109 27.1296 98.6992C27.1179 98.6875 27.1003 98.6582 27.0769 98.6113C27.0535 98.5645 27.0271 98.5117 26.9978 98.4531C26.9744 98.3945 26.948 98.3389 26.9187 98.2861C26.8953 98.2275 26.8748 98.1836 26.8572 98.1543C26.7927 98.0547 26.7019 97.9961 26.5847 97.9785C26.4734 97.9551 26.3621 97.9434 26.2507 97.9434H26.075C25.864 97.9434 25.6648 97.958 25.4773 97.9873C25.2957 98.0166 25.1023 98.0312 24.8972 98.0312C24.8562 98.0312 24.8152 98.0283 24.7742 98.0225C24.7332 98.0166 24.6921 98.0137 24.6511 98.0137C24.6101 98.0547 24.5896 98.0869 24.5896 98.1104C24.5779 98.1162 24.5632 98.1396 24.5457 98.1807C24.5339 98.2158 24.5193 98.2568 24.5017 98.3037C24.49 98.3447 24.4753 98.3857 24.4578 98.4268C24.446 98.4619 24.4402 98.4824 24.4402 98.4883C24.4402 98.5 24.4197 98.5352 24.3787 98.5938C24.3435 98.6523 24.3171 98.6875 24.2996 98.6992C24.2292 98.8457 24.1882 98.998 24.1765 99.1562C24.1648 99.3086 24.1589 99.4668 24.1589 99.6309C24.1589 99.7246 24.1882 99.7949 24.2468 99.8418C24.3054 99.8828 24.3787 99.915 24.4666 99.9385C24.5544 99.9619 24.6482 99.9824 24.7478 100C24.8474 100.012 24.9412 100.032 25.0291 100.062C25.1169 100.085 25.1902 100.123 25.2488 100.176C25.3074 100.229 25.3367 100.305 25.3367 100.404C25.3367 100.598 25.2458 100.718 25.0642 100.765C25.0408 100.765 24.9968 100.762 24.9324 100.756C24.8738 100.75 24.8123 100.744 24.7478 100.738C24.6833 100.732 24.6218 100.727 24.5632 100.721C24.5046 100.715 24.4636 100.709 24.4402 100.703H23.8162H23.5701C23.5525 100.703 23.5056 100.7 23.4294 100.694C23.3533 100.688 23.2683 100.683 23.1746 100.677C23.0808 100.665 22.9958 100.656 22.9197 100.65C22.8435 100.639 22.7966 100.633 22.7791 100.633H22.7351ZM31.6824 100.677C31.6707 100.677 31.6355 100.683 31.5769 100.694C31.5242 100.712 31.4949 100.721 31.489 100.721H31.4539C31.3777 100.721 31.3015 100.718 31.2253 100.712C31.155 100.706 31.0906 100.691 31.032 100.668C30.9792 100.645 30.9353 100.609 30.9001 100.562C30.865 100.516 30.8474 100.451 30.8474 100.369V100.237C30.8533 100.179 30.9236 100.138 31.0583 100.114C31.199 100.085 31.3542 100.067 31.5242 100.062C31.6941 100.05 31.8552 100.041 32.0076 100.035C32.1599 100.023 32.2507 100 32.28 99.9648C32.2859 99.9355 32.2917 99.9092 32.2976 99.8857C32.3035 99.8623 32.3093 99.8418 32.3152 99.8242C32.321 99.8066 32.324 99.792 32.324 99.7803C32.324 99.7568 32.3269 99.7217 32.3328 99.6748C32.3445 99.6221 32.3533 99.5693 32.3591 99.5166C32.3708 99.458 32.3796 99.4053 32.3855 99.3584C32.3914 99.3115 32.3943 99.2793 32.3943 99.2617C32.3943 99.2148 32.3972 99.1182 32.4031 98.9717C32.4089 98.8193 32.4148 98.6553 32.4207 98.4795C32.4265 98.3037 32.4324 98.1338 32.4382 97.9697C32.4441 97.8057 32.447 97.6885 32.447 97.6182C32.447 97.5889 32.447 97.5361 32.447 97.46C32.4529 97.3779 32.4558 97.29 32.4558 97.1963C32.4558 97.1025 32.4529 97.0176 32.447 96.9414C32.447 96.8652 32.447 96.8066 32.447 96.7656L32.491 96.6514C32.491 96.6455 32.4939 96.5869 32.4998 96.4756C32.5056 96.3584 32.5115 96.2207 32.5173 96.0625C32.5291 95.9043 32.5378 95.7432 32.5437 95.5791C32.5554 95.415 32.5613 95.2803 32.5613 95.1748V94.5771V93.9531C32.5613 93.9297 32.5554 93.8945 32.5437 93.8477C32.5378 93.8008 32.532 93.7539 32.5261 93.707C32.5203 93.6543 32.5115 93.6104 32.4998 93.5752C32.4939 93.5342 32.491 93.5078 32.491 93.4961C32.4617 93.4082 32.4031 93.3467 32.3152 93.3115C32.2332 93.2705 32.1335 93.2412 32.0164 93.2236C31.905 93.2061 31.7849 93.1973 31.656 93.1973C31.533 93.1914 31.4187 93.1797 31.3132 93.1621C31.2078 93.1445 31.1199 93.1152 31.0496 93.0742C30.9851 93.0273 30.9529 92.957 30.9529 92.8633C30.9529 92.8105 30.9705 92.7637 31.0056 92.7227C31.0408 92.6758 31.0818 92.6348 31.1287 92.5996C31.1755 92.5645 31.2253 92.5381 31.2781 92.5205C31.3367 92.4971 31.3865 92.4854 31.4275 92.4854C31.5095 92.4854 31.6091 92.4971 31.7263 92.5205C31.8435 92.5439 31.9343 92.5498 31.9988 92.5381C32.0164 92.5381 32.0515 92.5352 32.1042 92.5293C32.157 92.5234 32.2126 92.5176 32.2712 92.5117C32.3357 92.5059 32.3943 92.5 32.447 92.4941C32.5056 92.4883 32.5437 92.4854 32.5613 92.4854C32.5906 92.4854 32.658 92.4883 32.7634 92.4941C32.8689 92.5 32.9802 92.5059 33.0974 92.5117C33.2205 92.5176 33.3347 92.5264 33.4402 92.5381C33.5457 92.5439 33.613 92.5498 33.6423 92.5557H33.7478H33.8269C33.8386 92.5498 33.865 92.5439 33.906 92.5381C33.947 92.5264 33.988 92.5176 34.0291 92.5117C34.0759 92.5059 34.1169 92.5 34.1521 92.4941C34.1931 92.4883 34.2166 92.4854 34.2224 92.4854H34.6619C34.6677 92.4854 34.6882 92.4824 34.7234 92.4766C34.7585 92.4707 34.7937 92.4648 34.8289 92.459C34.8699 92.4531 34.905 92.4473 34.9343 92.4414C34.9695 92.4355 34.99 92.4326 34.9958 92.4326H35.031C35.0427 92.4326 35.0515 92.4326 35.0574 92.4326C35.0691 92.4268 35.0808 92.4238 35.0925 92.4238C35.1628 92.4238 35.2332 92.4268 35.3035 92.4326C35.3738 92.4385 35.4382 92.4531 35.4968 92.4766C35.5554 92.4941 35.6023 92.5264 35.6375 92.5732C35.6785 92.6201 35.699 92.6846 35.699 92.7666C35.699 92.7842 35.6931 92.8105 35.6814 92.8457C35.6697 92.875 35.6638 92.8955 35.6638 92.9072C35.6169 92.9365 35.5437 92.9805 35.4441 93.0391C35.3445 93.0918 35.2625 93.124 35.198 93.1357C35.1746 93.1357 35.1218 93.1416 35.0398 93.1533C34.9636 93.1592 34.8816 93.168 34.7937 93.1797C34.7058 93.1855 34.6238 93.1943 34.5476 93.2061C34.4714 93.2119 34.4246 93.2148 34.407 93.2148C34.3601 93.2207 34.3191 93.2412 34.2839 93.2764C34.2546 93.3057 34.2341 93.3438 34.2224 93.3906C34.1697 93.6543 34.1345 93.915 34.1169 94.1729C34.1052 94.4307 34.0994 94.6943 34.0994 94.9639V95.8076V96.0889C34.0994 96.0947 34.0935 96.1299 34.0818 96.1943C34.0759 96.2529 34.0671 96.3203 34.0554 96.3965C34.0496 96.4668 34.0408 96.5342 34.0291 96.5986C34.0232 96.6631 34.0203 96.7041 34.0203 96.7217V98.0576V98.5674C34.0203 98.585 34.0173 98.623 34.0115 98.6816C34.0056 98.7402 33.9998 98.8018 33.9939 98.8662C33.988 98.9307 33.9822 98.9893 33.9763 99.042C33.9705 99.0947 33.9675 99.127 33.9675 99.1387V99.1826V99.2617C33.9675 99.2734 33.9763 99.3057 33.9939 99.3584C34.0115 99.4053 34.0203 99.4346 34.0203 99.4463C34.0203 99.458 34.0115 99.4785 33.9939 99.5078C33.9763 99.5312 33.9675 99.5518 33.9675 99.5693C33.9617 99.5869 33.9587 99.6045 33.9587 99.6221C33.9529 99.6338 33.95 99.6484 33.95 99.666C33.95 99.6777 33.95 99.6895 33.95 99.7012C33.95 99.8125 33.9822 99.918 34.0466 100.018C34.1169 100.111 34.2048 100.158 34.3103 100.158H34.363C34.533 100.129 34.7087 100.103 34.8904 100.079C35.0779 100.05 35.2566 100.035 35.4265 100.035H36.9119C36.9353 100.035 36.9734 100.032 37.0261 100.026C37.0847 100.021 37.1404 100.015 37.1931 100.009C37.2458 100.003 37.2927 99.9971 37.3337 99.9912C37.3748 99.9795 37.3982 99.9707 37.4041 99.9648C37.4158 99.959 37.4392 99.9414 37.4744 99.9121C37.5095 99.877 37.5476 99.8389 37.5886 99.7979C37.6355 99.751 37.6765 99.707 37.7117 99.666C37.7527 99.625 37.782 99.5928 37.7996 99.5693C37.7996 99.5635 37.8054 99.5488 37.8171 99.5254C37.8289 99.4961 37.8406 99.4697 37.8523 99.4463C37.864 99.417 37.8757 99.3906 37.8875 99.3672C37.8992 99.3438 37.908 99.3291 37.9138 99.3232C37.9138 99.3174 37.9226 99.3086 37.9402 99.2969C37.9636 99.2793 37.9871 99.2617 38.0105 99.2441C38.0339 99.2266 38.0544 99.2119 38.072 99.2002C38.0955 99.1885 38.1101 99.1826 38.116 99.1826L38.1599 99.1387C38.1716 99.1328 38.1951 99.1006 38.2302 99.042C38.2654 98.9775 38.283 98.9395 38.283 98.9277C38.3064 98.9043 38.3357 98.8691 38.3708 98.8223C38.4119 98.7695 38.4529 98.7168 38.4939 98.6641C38.5408 98.6055 38.5818 98.5527 38.6169 98.5059C38.6521 98.4531 38.6785 98.418 38.696 98.4004C38.7195 98.3711 38.7341 98.3535 38.74 98.3477C38.7517 98.3418 38.781 98.3389 38.8279 98.3389C38.9216 98.3389 38.9949 98.377 39.0476 98.4531C39.1003 98.5234 39.1384 98.6084 39.1619 98.708C39.1853 98.8076 39.197 98.9102 39.197 99.0156C39.2029 99.1152 39.2058 99.1973 39.2058 99.2617C39.2058 99.291 39.2058 99.3262 39.2058 99.3672C39.2058 99.4082 39.2058 99.4492 39.2058 99.4902C39.2058 99.5312 39.2029 99.5664 39.197 99.5957C39.197 99.625 39.197 99.6396 39.197 99.6396C39.197 99.6514 39.1882 99.6836 39.1707 99.7363C39.1531 99.7832 39.1443 99.8125 39.1443 99.8242C39.1326 99.959 39.1267 100.076 39.1267 100.176C39.1267 100.27 39.1121 100.352 39.0828 100.422C39.0593 100.492 39.0125 100.551 38.9421 100.598C38.8777 100.645 38.7693 100.686 38.6169 100.721C38.5642 100.727 38.4675 100.729 38.3269 100.729C38.1863 100.735 38.0339 100.738 37.8699 100.738C37.7117 100.738 37.5593 100.738 37.4128 100.738C37.2722 100.738 37.1726 100.738 37.114 100.738C37.0085 100.738 36.8738 100.738 36.7097 100.738C36.5457 100.738 36.3845 100.738 36.2263 100.738C36.074 100.738 35.9392 100.735 35.822 100.729C35.7048 100.729 35.6433 100.727 35.6375 100.721C35.6082 100.721 35.5496 100.718 35.4617 100.712C35.3796 100.712 35.2859 100.709 35.1804 100.703C35.0808 100.703 34.9812 100.7 34.8816 100.694C34.7878 100.688 34.7146 100.683 34.6619 100.677C34.656 100.677 34.6384 100.674 34.6091 100.668C34.5798 100.662 34.5476 100.656 34.5125 100.65C34.4773 100.645 34.4451 100.639 34.4158 100.633C34.3865 100.627 34.3689 100.621 34.363 100.615H34.3103H34.2224C34.1931 100.621 34.1345 100.627 34.0466 100.633C33.9587 100.639 33.865 100.645 33.7654 100.65C33.6658 100.656 33.5691 100.662 33.4753 100.668C33.3875 100.674 33.3318 100.677 33.3083 100.677H32.7195C32.7078 100.677 32.6667 100.683 32.5964 100.694C32.532 100.712 32.4968 100.721 32.491 100.721C32.45 100.744 32.4001 100.756 32.3416 100.756C32.2888 100.762 32.2478 100.765 32.2185 100.765C32.2009 100.765 32.1658 100.759 32.113 100.747C32.0603 100.741 32.0017 100.732 31.9373 100.721C31.8787 100.709 31.823 100.697 31.7703 100.686C31.7175 100.68 31.6882 100.677 31.6824 100.677ZM40.9812 93.7158C40.9636 93.6045 40.9402 93.5166 40.9109 93.4521C40.8816 93.3818 40.8435 93.3262 40.7966 93.2852C40.7498 93.2383 40.6912 93.1973 40.6208 93.1621C40.5505 93.127 40.4626 93.083 40.3572 93.0303C40.2927 93.001 40.2253 92.9805 40.155 92.9688C40.0906 92.9512 40.0496 92.9365 40.032 92.9248C39.9968 92.8838 39.9705 92.8281 39.9529 92.7578C39.9353 92.6816 39.9265 92.626 39.9265 92.5908C39.9265 92.5791 39.9265 92.5557 39.9265 92.5205C39.9324 92.4795 39.947 92.4502 39.9705 92.4326C39.9822 92.4268 40.0144 92.418 40.0671 92.4062C40.1199 92.3945 40.1609 92.3828 40.1902 92.3711C40.2488 92.3652 40.3132 92.3594 40.3835 92.3535C40.4597 92.3477 40.53 92.3447 40.5945 92.3447C40.6941 92.3447 40.7966 92.3535 40.9021 92.3711C41.0076 92.3828 41.1453 92.4033 41.3152 92.4326H41.6492C41.7605 92.4326 41.866 92.4326 41.9656 92.4326C42.0652 92.4326 42.1619 92.4297 42.2556 92.4238C42.3494 92.418 42.4431 92.4121 42.5369 92.4062C42.6306 92.4004 42.7332 92.3887 42.8445 92.3711C42.8621 92.3711 42.8972 92.3623 42.95 92.3447C43.0027 92.3271 43.0349 92.3184 43.0466 92.3184H43.1082C43.2429 92.3184 43.366 92.3418 43.4773 92.3887C43.5945 92.4355 43.6531 92.5322 43.6531 92.6787C43.6531 92.7783 43.6179 92.8545 43.5476 92.9072C43.4773 92.96 43.3923 93.0068 43.2927 93.0479C43.199 93.0889 43.1023 93.1299 43.0027 93.1709C42.9089 93.2061 42.8357 93.2559 42.783 93.3203C42.7244 93.3848 42.6775 93.4639 42.6423 93.5576C42.6072 93.6455 42.5779 93.7422 42.5544 93.8477C42.5369 93.9473 42.5251 94.0469 42.5193 94.1465C42.5134 94.2461 42.5105 94.334 42.5105 94.4102C42.5105 94.5039 42.5222 94.5801 42.5457 94.6387C42.575 94.6973 42.5896 94.7676 42.5896 94.8496C42.5896 94.8672 42.5867 94.8936 42.5808 94.9287C42.5808 94.958 42.572 94.9785 42.5544 94.9902C42.5544 95.002 42.5515 95.0342 42.5457 95.0869C42.5398 95.1396 42.5339 95.1982 42.5281 95.2627C42.5281 95.3213 42.5251 95.377 42.5193 95.4297C42.5134 95.4824 42.5105 95.5176 42.5105 95.5352V96.3086C42.5105 96.3379 42.4988 96.3877 42.4753 96.458C42.4578 96.5283 42.446 96.5752 42.4402 96.5986V96.6953V96.7832C42.4402 96.7949 42.4431 96.8242 42.449 96.8711C42.4607 96.918 42.4695 96.9678 42.4753 97.0205C42.4871 97.0732 42.4958 97.123 42.5017 97.1699C42.5076 97.2168 42.5105 97.2461 42.5105 97.2578C42.5164 97.2871 42.5193 97.3398 42.5193 97.416C42.5251 97.4863 42.531 97.5625 42.5369 97.6445C42.5427 97.7207 42.5457 97.7939 42.5457 97.8643C42.5515 97.9346 42.5544 97.9844 42.5544 98.0137C42.5603 98.0605 42.572 98.1221 42.5896 98.1982C42.6072 98.2686 42.6248 98.3418 42.6423 98.418C42.6658 98.4941 42.6892 98.5674 42.7126 98.6377C42.7361 98.708 42.7595 98.7637 42.783 98.8047C42.8064 98.8633 42.8474 98.9365 42.906 99.0244C42.9705 99.1123 43.0408 99.2002 43.1169 99.2881C43.1931 99.3701 43.2693 99.4434 43.3455 99.5078C43.4275 99.5723 43.5037 99.6133 43.574 99.6309C43.5857 99.6309 43.6121 99.6426 43.6531 99.666C43.6941 99.6836 43.7292 99.6924 43.7585 99.6924C43.7996 99.6924 43.8201 99.6953 43.8201 99.7012C43.8845 99.707 43.9431 99.7217 43.9958 99.7451C44.0486 99.7627 44.0984 99.7832 44.1453 99.8066C44.1921 99.8242 44.2419 99.8418 44.2947 99.8594C44.3474 99.877 44.406 99.8857 44.4705 99.8857H44.5935C44.5994 99.8799 44.6199 99.8682 44.655 99.8506C44.6902 99.833 44.7253 99.8154 44.7605 99.7979C44.8015 99.7803 44.8367 99.7656 44.866 99.7539C44.9011 99.7422 44.9216 99.7363 44.9275 99.7363H45.0681C45.1267 99.7188 45.1882 99.7012 45.2527 99.6836C45.2996 99.6719 45.3494 99.6631 45.4021 99.6572C45.4548 99.6455 45.4958 99.6367 45.5251 99.6309C45.6833 99.5781 45.824 99.4814 45.947 99.3408C46.0759 99.1943 46.1785 99.0625 46.2546 98.9453C46.2605 98.9336 46.2693 98.9072 46.281 98.8662C46.2986 98.8252 46.3132 98.7842 46.325 98.7432C46.3425 98.6963 46.3572 98.6523 46.3689 98.6113C46.3806 98.5703 46.3865 98.5439 46.3865 98.5322C46.4568 98.3506 46.5095 98.1602 46.5447 97.9609C46.5798 97.7617 46.6033 97.5596 46.615 97.3545C46.6267 97.1436 46.6355 96.9355 46.6414 96.7305C46.6472 96.5254 46.6589 96.3262 46.6765 96.1328C46.6765 96.127 46.6794 96.1094 46.6853 96.0801C46.6912 96.0449 46.6941 96.0098 46.6941 95.9746C46.7 95.9336 46.7058 95.8984 46.7117 95.8691C46.7175 95.834 46.7205 95.8105 46.7205 95.7988V95.4297V95.0342C46.7146 94.9873 46.7058 94.9023 46.6941 94.7793C46.6824 94.6562 46.6677 94.5244 46.6501 94.3838C46.6384 94.2432 46.6267 94.1113 46.615 93.9883C46.6091 93.8594 46.6062 93.7686 46.6062 93.7158C46.5945 93.6865 46.571 93.6309 46.5359 93.5488C46.5007 93.4609 46.4714 93.4053 46.448 93.3818C46.4421 93.3525 46.4333 93.3232 46.4216 93.2939C46.4099 93.2588 46.3982 93.2412 46.3865 93.2412C46.3455 93.2002 46.3074 93.1797 46.2722 93.1797C46.2429 93.1797 46.2166 93.1826 46.1931 93.1885C46.1755 93.1943 46.155 93.1973 46.1316 93.1973C46.1023 93.1973 46.0759 93.1914 46.0525 93.1797C45.906 93.1504 45.7712 93.1152 45.6482 93.0742C45.531 93.0332 45.4226 92.9482 45.323 92.8193C45.3113 92.79 45.3025 92.7695 45.2966 92.7578C45.2966 92.7461 45.2966 92.7197 45.2966 92.6787C45.2966 92.667 45.2996 92.6553 45.3054 92.6436C45.3113 92.626 45.3171 92.6113 45.323 92.5996C45.4167 92.4824 45.531 92.4121 45.6658 92.3887C45.8005 92.3594 45.9412 92.3447 46.0876 92.3447C46.1931 92.3447 46.2986 92.3506 46.4041 92.3623C46.5095 92.3682 46.6121 92.3711 46.7117 92.3711C46.7585 92.3711 46.8259 92.3623 46.9138 92.3447C47.0076 92.3271 47.0867 92.3184 47.1511 92.3184H47.696C47.7488 92.3184 47.8103 92.3154 47.8806 92.3096C47.9568 92.3037 48.033 92.3008 48.1091 92.3008C48.2263 92.3008 48.3406 92.3096 48.4519 92.3271C48.5632 92.3447 48.657 92.3799 48.7332 92.4326C48.7449 92.4502 48.7507 92.4824 48.7507 92.5293C48.7566 92.5762 48.7595 92.6055 48.7595 92.6172C48.7595 92.7344 48.7302 92.8252 48.6716 92.8896C48.6189 92.9482 48.5486 92.9951 48.4607 93.0303C48.3787 93.0596 48.2878 93.083 48.1882 93.1006C48.0945 93.1182 48.0066 93.1445 47.9246 93.1797C47.8308 93.2207 47.7546 93.2852 47.696 93.373C47.6375 93.4609 47.6082 93.5576 47.6082 93.6631C47.6082 93.7568 47.6169 93.8389 47.6345 93.9092C47.658 93.9795 47.6697 94.0615 47.6697 94.1553V94.3047C47.6697 94.3223 47.658 94.3604 47.6345 94.4189C47.6169 94.4775 47.6082 94.5098 47.6082 94.5156V94.7354V95.2451C47.6023 95.3096 47.5964 95.4209 47.5906 95.5791C47.5847 95.7373 47.5759 95.9072 47.5642 96.0889C47.5583 96.2646 47.5525 96.4316 47.5466 96.5898C47.5408 96.748 47.5349 96.8594 47.5291 96.9238C47.4998 96.9824 47.4792 97.041 47.4675 97.0996C47.4558 97.1523 47.447 97.208 47.4412 97.2666C47.4353 97.3193 47.4294 97.3721 47.4236 97.4248C47.4236 97.4775 47.4148 97.5332 47.3972 97.5918C47.3914 97.6094 47.3826 97.6416 47.3708 97.6885C47.3591 97.7295 47.3445 97.7764 47.3269 97.8291C47.3152 97.8818 47.3035 97.9316 47.2917 97.9785C47.28 98.0195 47.2742 98.0459 47.2742 98.0576C47.2625 98.0693 47.2537 98.0986 47.2478 98.1455C47.2419 98.1865 47.2361 98.2305 47.2302 98.2773C47.2302 98.3184 47.2244 98.3594 47.2126 98.4004C47.2068 98.4355 47.2009 98.4531 47.1951 98.4531C47.1951 98.4707 47.1746 98.5117 47.1335 98.5762C47.0925 98.6348 47.0691 98.6699 47.0632 98.6816C47.0515 98.6934 47.031 98.7314 47.0017 98.7959C46.9724 98.8604 46.9373 98.9307 46.8962 99.0068C46.8611 99.083 46.8259 99.1533 46.7908 99.2178C46.7556 99.2822 46.7322 99.3232 46.7205 99.3408C46.615 99.54 46.4773 99.7188 46.3074 99.877C46.1433 100.035 45.9675 100.196 45.78 100.36C45.7566 100.378 45.7214 100.404 45.6746 100.439C45.6277 100.469 45.5779 100.501 45.5251 100.536C45.4783 100.571 45.4343 100.604 45.3933 100.633C45.3523 100.656 45.3289 100.671 45.323 100.677H45.0681C44.9568 100.688 44.8572 100.7 44.7693 100.712C44.6873 100.729 44.6052 100.744 44.5232 100.756C44.4412 100.773 44.3562 100.788 44.2683 100.8C44.1804 100.812 44.0808 100.817 43.9695 100.817H43.4421C43.3777 100.788 43.3103 100.768 43.24 100.756C43.1697 100.744 43.0994 100.732 43.0291 100.721C42.9646 100.715 42.9001 100.703 42.8357 100.686C42.7712 100.674 42.7097 100.65 42.6511 100.615C42.6335 100.609 42.5955 100.589 42.5369 100.554C42.4783 100.513 42.4109 100.466 42.3347 100.413C42.2644 100.36 42.1941 100.311 42.1238 100.264C42.0535 100.211 42.0007 100.167 41.9656 100.132L41.9041 100.088C41.8572 100.012 41.8074 99.9473 41.7546 99.8945C41.7019 99.8359 41.6492 99.7803 41.5964 99.7275C41.5437 99.6748 41.491 99.6191 41.4382 99.5605C41.3914 99.4961 41.3503 99.4229 41.3152 99.3408C41.1921 99.0596 41.1042 98.7578 41.0515 98.4355C41.0046 98.1074 40.9812 97.7852 40.9812 97.4688C40.9753 97.3984 40.9695 97.3018 40.9636 97.1787C40.9636 97.0498 40.9636 96.9033 40.9636 96.7393C40.9636 96.5693 40.9636 96.3877 40.9636 96.1943C40.9636 96.001 40.9636 95.8018 40.9636 95.5967C40.9636 95.3975 40.9636 95.2012 40.9636 95.0078C40.9636 94.8145 40.9636 94.6357 40.9636 94.4717C40.9636 94.3018 40.9636 94.1523 40.9636 94.0234C40.9695 93.8887 40.9753 93.7861 40.9812 93.7158ZM54.6218 93.6807C54.6687 93.6572 54.7009 93.6162 54.7185 93.5576C54.7361 93.499 54.7449 93.4404 54.7449 93.3818C54.7449 93.2588 54.698 93.1738 54.6042 93.127C54.5164 93.0742 54.4167 93.0361 54.3054 93.0127C54.2 92.9834 54.1003 92.9541 54.0066 92.9248C53.9187 92.8896 53.8748 92.8281 53.8748 92.7402C53.8748 92.7109 53.8865 92.6875 53.9099 92.6699C53.9333 92.6465 53.9626 92.6289 53.9978 92.6172C54.033 92.5996 54.0681 92.585 54.1033 92.5732C54.1443 92.5615 54.1794 92.5498 54.2087 92.5381C54.238 92.5264 54.2849 92.5146 54.3494 92.5029C54.4197 92.4912 54.4607 92.4854 54.4724 92.4854H56.0193C56.1248 92.4385 56.2273 92.4121 56.3269 92.4062C56.4265 92.3945 56.5261 92.3887 56.6257 92.3887C56.7019 92.3887 56.7722 92.3916 56.8367 92.3975C56.907 92.3975 56.9656 92.4062 57.0125 92.4238C57.0652 92.4414 57.1062 92.4736 57.1355 92.5205C57.1648 92.5674 57.1794 92.6348 57.1794 92.7227C57.1794 92.8457 57.1443 92.9395 57.074 93.0039C57.0095 93.0684 56.9275 93.1182 56.8279 93.1533C56.7283 93.1826 56.6228 93.2061 56.5115 93.2236C56.406 93.2412 56.3123 93.2617 56.2302 93.2852C55.9666 93.3789 55.7322 93.5049 55.5271 93.6631C55.3279 93.8154 55.1375 94.0029 54.9558 94.2256C54.9382 94.2432 54.906 94.2812 54.8591 94.3398C54.8123 94.3926 54.7595 94.4512 54.7009 94.5156C54.6482 94.5801 54.5984 94.6416 54.5515 94.7002C54.5046 94.7529 54.4724 94.7881 54.4548 94.8057C54.4314 94.835 54.405 94.8701 54.3757 94.9111C54.3464 94.9521 54.3113 94.9873 54.2703 95.0166C54.1941 95.0811 54.1208 95.1631 54.0505 95.2627C53.9802 95.3623 53.9216 95.459 53.8748 95.5527C53.8513 95.5938 53.8308 95.6318 53.8132 95.667C53.8015 95.7021 53.7957 95.749 53.7957 95.8076C53.7957 95.9307 53.8279 96.0596 53.8923 96.1943C53.9568 96.3291 54.0183 96.4551 54.0769 96.5723C54.1003 96.6074 54.1296 96.6602 54.1648 96.7305C54.2 96.7949 54.2351 96.8594 54.2703 96.9238C54.3054 96.9883 54.3347 97.0469 54.3582 97.0996C54.3875 97.1523 54.405 97.1846 54.4109 97.1963C54.4167 97.208 54.4373 97.2432 54.4724 97.3018C54.5134 97.3545 54.5574 97.416 54.6042 97.4863C54.6511 97.5508 54.6921 97.6123 54.7273 97.6709C54.7683 97.7295 54.7947 97.7676 54.8064 97.7852L55.0173 98.1807C55.0876 98.3447 55.1609 98.5088 55.2371 98.6729C55.3132 98.8311 55.3953 98.9863 55.4832 99.1387C55.571 99.2852 55.6707 99.4258 55.782 99.5605C55.8933 99.6953 56.0222 99.8242 56.1687 99.9473C56.2214 99.9883 56.2888 100.023 56.3708 100.053C56.4529 100.076 56.532 100.103 56.6082 100.132C56.6902 100.161 56.7576 100.202 56.8103 100.255C56.8689 100.302 56.8982 100.372 56.8982 100.466C56.8982 100.583 56.8601 100.656 56.7839 100.686C56.7136 100.721 56.6316 100.738 56.5378 100.738C56.4851 100.738 56.4294 100.735 56.3708 100.729C56.3181 100.724 56.2712 100.721 56.2302 100.721C56.2068 100.732 56.1482 100.741 56.0544 100.747C55.9607 100.759 55.8582 100.771 55.7468 100.782C55.6414 100.794 55.5417 100.803 55.448 100.809C55.3542 100.814 55.2957 100.817 55.2722 100.817H55.2283C55.2224 100.817 55.2019 100.814 55.1667 100.809C55.1316 100.803 55.0935 100.794 55.0525 100.782C55.0173 100.771 54.9792 100.759 54.9382 100.747C54.9031 100.741 54.8826 100.732 54.8767 100.721C54.8474 100.721 54.7859 100.718 54.6921 100.712C54.6042 100.706 54.5076 100.7 54.4021 100.694C54.3025 100.694 54.2087 100.691 54.1208 100.686C54.033 100.68 53.9773 100.677 53.9539 100.677C53.9304 100.677 53.8806 100.671 53.8044 100.659C53.7341 100.642 53.6873 100.627 53.6638 100.615V100.554C53.6638 100.46 53.6843 100.396 53.7253 100.36C53.7722 100.325 53.8191 100.296 53.866 100.272C53.9187 100.243 53.9656 100.208 54.0066 100.167C54.0535 100.126 54.0769 100.053 54.0769 99.9473C54.0769 99.8887 54.0593 99.7949 54.0242 99.666C53.989 99.5371 53.9392 99.3965 53.8748 99.2441C53.8162 99.0859 53.7488 98.9248 53.6726 98.7607C53.6023 98.5967 53.5261 98.4473 53.4441 98.3125C53.3679 98.1777 53.2947 98.0664 53.2244 97.9785C53.1541 97.8906 53.0925 97.8467 53.0398 97.8467C52.9402 97.8467 52.8582 97.876 52.7937 97.9346C52.7292 97.9873 52.6736 98.0547 52.6267 98.1367C52.5798 98.2129 52.5388 98.2949 52.5037 98.3828C52.4685 98.4707 52.4333 98.5469 52.3982 98.6113C52.3806 98.6406 52.3367 98.7109 52.2664 98.8223C52.196 98.9277 52.1169 99.0449 52.0291 99.1738C51.947 99.3027 51.8679 99.4229 51.7917 99.5342C51.7214 99.6455 51.6775 99.7129 51.6599 99.7363C51.6482 99.7422 51.6335 99.7627 51.616 99.7979C51.6042 99.8271 51.5925 99.8477 51.5808 99.8594V99.9209C51.5808 100.003 51.616 100.062 51.6863 100.097C51.7566 100.132 51.8386 100.164 51.9324 100.193C52.0261 100.217 52.1199 100.249 52.2136 100.29C52.3132 100.325 52.3894 100.384 52.4421 100.466C52.4421 100.542 52.4216 100.595 52.3806 100.624C52.3455 100.647 52.3015 100.665 52.2488 100.677H49.7878C49.741 100.677 49.7117 100.659 49.7 100.624C49.6941 100.583 49.6912 100.554 49.6912 100.536V100.466C49.7615 100.384 49.8406 100.316 49.9285 100.264C50.0222 100.211 50.116 100.164 50.2097 100.123C50.3093 100.082 50.4089 100.044 50.5085 100.009C50.6082 99.9678 50.7019 99.918 50.7898 99.8594C50.8132 99.8359 50.8601 99.792 50.9304 99.7275C51.0007 99.6572 51.074 99.584 51.1501 99.5078C51.2322 99.4316 51.3083 99.3584 51.3787 99.2881C51.4548 99.2178 51.5076 99.168 51.5369 99.1387C51.6892 98.9629 51.8181 98.7812 51.9236 98.5938C52.0349 98.4004 52.1433 98.2041 52.2488 98.0049C52.2605 97.9873 52.2869 97.9609 52.3279 97.9258C52.3689 97.8848 52.3923 97.8584 52.3982 97.8467C52.4158 97.8232 52.4392 97.791 52.4685 97.75C52.5037 97.7031 52.533 97.6592 52.5564 97.6182C52.5857 97.5771 52.6091 97.542 52.6267 97.5127C52.6501 97.4775 52.6619 97.457 52.6619 97.4512C52.6619 97.4512 52.6619 97.4365 52.6619 97.4072C52.6677 97.3721 52.6707 97.334 52.6707 97.293C52.6765 97.252 52.6794 97.2139 52.6794 97.1787C52.6853 97.1377 52.6882 97.1084 52.6882 97.0908C52.6882 97.0732 52.6853 97.0469 52.6794 97.0117C52.6794 96.9766 52.6765 96.9385 52.6707 96.8975C52.6707 96.8564 52.6677 96.8184 52.6619 96.7832C52.6619 96.7422 52.6619 96.7158 52.6619 96.7041C52.4978 96.6045 52.3748 96.4902 52.2927 96.3613C52.2107 96.2266 52.1345 96.0742 52.0642 95.9043C52.0583 95.8867 52.0408 95.8545 52.0115 95.8076C51.9822 95.7607 51.9529 95.7139 51.9236 95.667C51.8943 95.6143 51.865 95.5674 51.8357 95.5264C51.8123 95.4795 51.7976 95.4531 51.7917 95.4473C51.7683 95.4004 51.7332 95.3271 51.6863 95.2275C51.6453 95.1279 51.6101 95.0576 51.5808 95.0166C51.5691 95.0107 51.5574 94.9932 51.5457 94.9639C51.5339 94.9287 51.5222 94.8936 51.5105 94.8584C51.4988 94.8232 51.4871 94.7881 51.4753 94.7529C51.4695 94.7178 51.4636 94.6943 51.4578 94.6826L51.4402 94.665C51.4343 94.6592 51.4255 94.6562 51.4138 94.6562C51.408 94.6504 51.4021 94.6416 51.3962 94.6299C51.3728 94.6123 51.3523 94.5947 51.3347 94.5771C51.2175 94.4307 51.1238 94.2783 51.0535 94.1201C50.989 93.9619 50.9011 93.8154 50.7898 93.6807C50.7136 93.5928 50.6345 93.5166 50.5525 93.4521C50.4705 93.3818 50.3855 93.3174 50.2976 93.2588C50.2156 93.2002 50.1306 93.1416 50.0427 93.083C49.9548 93.0244 49.8699 92.957 49.7878 92.8809C49.741 92.8516 49.7117 92.8164 49.7 92.7754C49.6941 92.7285 49.6912 92.6816 49.6912 92.6348C49.6912 92.5703 49.7058 92.5293 49.7351 92.5117C49.7644 92.4941 49.8113 92.4854 49.8757 92.4854H49.9109C49.9109 92.4854 49.9226 92.4883 49.946 92.4941C49.9753 92.5 50.0046 92.5059 50.0339 92.5117C50.0691 92.5176 50.0984 92.5234 50.1218 92.5293C50.1511 92.5352 50.1716 92.5381 50.1833 92.5381H50.2273C50.6023 92.5381 50.9714 92.5264 51.3347 92.5029C51.7039 92.4795 52.073 92.4678 52.4421 92.4678C52.5828 92.4678 52.6853 92.4854 52.7498 92.5205C52.8201 92.5498 52.8552 92.6318 52.8552 92.7666C52.8552 92.8838 52.8318 92.9658 52.7849 93.0127C52.738 93.0537 52.6853 93.0859 52.6267 93.1094C52.5681 93.1328 52.5154 93.1621 52.4685 93.1973C52.4216 93.2324 52.3982 93.3027 52.3982 93.4082C52.3982 93.4551 52.4158 93.5166 52.4509 93.5928C52.4861 93.6631 52.5154 93.7129 52.5388 93.7422C52.5564 93.7715 52.5945 93.8447 52.6531 93.9619C52.7175 94.0732 52.7849 94.1963 52.8552 94.3311C52.9314 94.46 53.0017 94.5801 53.0662 94.6914C53.1306 94.8027 53.1716 94.873 53.1892 94.9023C53.2302 94.9609 53.2654 95.0078 53.2947 95.043C53.3298 95.0781 53.3708 95.0957 53.4177 95.0957C53.488 95.0957 53.5671 95.0664 53.655 95.0078C53.7488 94.9434 53.8689 94.8555 54.0154 94.7441C54.074 94.6973 54.1326 94.624 54.1912 94.5244C54.2556 94.4189 54.3142 94.3135 54.3669 94.208C54.4197 94.0967 54.4666 93.9912 54.5076 93.8916C54.5544 93.792 54.5925 93.7217 54.6218 93.6807ZM65.7664 100.659C65.7429 100.659 65.7078 100.662 65.6609 100.668C65.6199 100.668 65.5759 100.668 65.5291 100.668C65.488 100.668 65.45 100.671 65.4148 100.677C65.3796 100.677 65.3621 100.677 65.3621 100.677L65.1511 100.756L64.0701 100.694H61.7673C61.6794 100.665 61.6033 100.645 61.5388 100.633C61.4802 100.621 61.4099 100.615 61.3279 100.615C61.2634 100.615 61.2136 100.618 61.1785 100.624C61.1433 100.63 61.0964 100.647 61.0378 100.677C60.9792 100.677 60.8796 100.674 60.739 100.668C60.6042 100.662 60.4607 100.659 60.3083 100.659C60.156 100.659 60.0095 100.662 59.8689 100.668C59.7341 100.674 59.6433 100.677 59.5964 100.677C59.5789 100.677 59.5466 100.68 59.4998 100.686C59.4587 100.691 59.4119 100.694 59.3591 100.694C59.3123 100.7 59.2654 100.706 59.2185 100.712C59.1775 100.718 59.1511 100.721 59.1394 100.721C59.1218 100.727 59.1013 100.729 59.0779 100.729C59.0603 100.735 59.0427 100.738 59.0251 100.738C59.0134 100.738 59.0017 100.738 58.99 100.738C58.8318 100.738 58.7117 100.721 58.6296 100.686C58.5535 100.656 58.4861 100.562 58.4275 100.404C58.4041 100.404 58.3923 100.398 58.3923 100.387C58.3865 100.381 58.3865 100.372 58.3923 100.36C58.3923 100.313 58.407 100.264 58.4363 100.211C58.4714 100.152 58.5125 100.1 58.5593 100.053C58.6121 100.006 58.6648 99.9678 58.7175 99.9385C58.7761 99.9033 58.8318 99.8857 58.8845 99.8857H59.7195C59.7312 99.8857 59.7693 99.8535 59.8337 99.7891C59.8982 99.7188 59.9509 99.666 59.9919 99.6309C60.0037 99.6191 60.0154 99.5957 60.0271 99.5605C60.0447 99.5195 60.0535 99.4902 60.0535 99.4727C60.1238 99.127 60.1648 98.7842 60.1765 98.4443C60.1882 98.1045 60.1941 97.75 60.1941 97.3809C60.1941 97.3516 60.1941 97.2871 60.1941 97.1875C60.2 97.082 60.2029 96.959 60.2029 96.8184C60.2087 96.6777 60.2146 96.5312 60.2205 96.3789C60.2263 96.2207 60.2292 96.0713 60.2292 95.9307C60.2351 95.79 60.238 95.6699 60.238 95.5703C60.2439 95.4648 60.2468 95.3945 60.2468 95.3594V94.8848C60.2468 94.416 60.238 93.9531 60.2205 93.4961C60.2029 93.0391 60.1941 92.585 60.1941 92.1338V92.0723C60.1941 92.0547 60.197 92.0107 60.2029 91.9404C60.2087 91.8643 60.2146 91.7852 60.2205 91.7031C60.2263 91.6211 60.2322 91.5449 60.238 91.4746C60.2439 91.4043 60.2468 91.3604 60.2468 91.3428C60.2527 91.29 60.2585 91.1992 60.2644 91.0703C60.2703 90.9355 60.2761 90.7949 60.282 90.6484C60.2878 90.4961 60.2937 90.3555 60.2996 90.2266C60.3054 90.0977 60.3083 90.0068 60.3083 89.9541C60.2791 89.8662 60.2615 89.7754 60.2556 89.6816C60.2498 89.582 60.241 89.4883 60.2292 89.4004C60.2175 89.3066 60.1941 89.2188 60.1589 89.1367C60.1238 89.0547 60.0681 88.9844 59.9919 88.9258C59.9568 88.9199 59.8953 88.9141 59.8074 88.9082C59.7195 88.9023 59.6257 88.8994 59.5261 88.8994C59.4324 88.8936 59.3416 88.8877 59.2537 88.8818C59.1658 88.876 59.1072 88.8701 59.0779 88.8643C58.9841 88.8525 58.8816 88.8379 58.7703 88.8203C58.6589 88.7969 58.5564 88.7646 58.4626 88.7236C58.3689 88.6768 58.2898 88.6152 58.2253 88.5391C58.1667 88.4629 58.1375 88.3633 58.1375 88.2402L58.1726 88.2227C58.1843 88.2168 58.1931 88.2109 58.199 88.2051C58.2048 88.1992 58.2136 88.1963 58.2253 88.1963C58.366 88.1143 58.4919 88.0615 58.6033 88.0381C58.7146 88.0088 58.8582 87.9941 59.0339 87.9941H59.0779C59.0955 88.0117 59.113 88.0264 59.1306 88.0381C59.1658 88.0615 59.1892 88.0732 59.2009 88.0732C59.4939 88.0967 59.7869 88.1143 60.0798 88.126C60.3728 88.1318 60.6687 88.1348 60.9675 88.1348C61.2136 88.1348 61.4539 88.1318 61.6882 88.126C61.9226 88.1201 62.1541 88.1172 62.3826 88.1172H64.325C64.3484 88.1172 64.3865 88.1143 64.4392 88.1084C64.4919 88.1025 64.5476 88.0996 64.6062 88.0996C64.6707 88.0938 64.7322 88.0879 64.7908 88.082C64.8494 88.0762 64.8933 88.0732 64.9226 88.0732H64.9841H65.0369C65.0544 88.0732 65.0955 88.0762 65.1599 88.082C65.2244 88.0879 65.2947 88.0938 65.3708 88.0996C65.447 88.0996 65.5173 88.1025 65.5818 88.1084C65.6521 88.1143 65.696 88.1172 65.7136 88.1172H66.7595C66.8064 88.123 66.8738 88.1289 66.9617 88.1348C67.0554 88.1406 67.1462 88.1465 67.2341 88.1523C67.3279 88.1582 67.4099 88.167 67.4802 88.1787C67.5505 88.1846 67.5886 88.1904 67.5945 88.1963C67.6003 88.1963 67.6238 88.2051 67.6648 88.2227C67.7058 88.2402 67.7498 88.2637 67.7966 88.293C67.8494 88.3164 67.8992 88.3428 67.946 88.3721C67.9988 88.4014 68.0398 88.4277 68.0691 88.4512C68.1277 88.4863 68.1746 88.5713 68.2097 88.7061C68.2507 88.835 68.283 88.9785 68.3064 89.1367C68.3298 89.2949 68.3474 89.4502 68.3591 89.6025C68.3767 89.7549 68.3914 89.8721 68.4031 89.9541C68.4031 89.9834 68.406 90.0361 68.4119 90.1123C68.4236 90.1826 68.4324 90.2588 68.4382 90.3408C68.4441 90.4229 68.45 90.502 68.4558 90.5781C68.4617 90.6543 68.4646 90.707 68.4646 90.7363V90.9736V91.2197C68.4353 91.2725 68.3972 91.3076 68.3503 91.3252C68.3035 91.3369 68.2537 91.3428 68.2009 91.3428H68.1394C68.075 91.3018 68.0281 91.2607 67.9988 91.2197C67.9695 91.1787 67.946 91.1377 67.9285 91.0967C67.9109 91.0498 67.8933 91.0029 67.8757 90.9561C67.864 90.9092 67.8406 90.8594 67.8054 90.8066C67.8054 90.8008 67.7937 90.7891 67.7703 90.7715C67.7527 90.748 67.7322 90.7246 67.7087 90.7012C67.6853 90.6777 67.6619 90.6572 67.6384 90.6396C67.615 90.6162 67.6003 90.6016 67.5945 90.5957C67.5125 90.4785 67.4304 90.3467 67.3484 90.2002C67.2722 90.0479 67.1814 89.9072 67.0759 89.7783C67.0701 89.7666 67.0496 89.7461 67.0144 89.7168C66.9851 89.6875 66.9646 89.6611 66.9529 89.6377C66.947 89.626 66.9265 89.6172 66.8914 89.6113C66.8562 89.5996 66.8328 89.5879 66.821 89.5762C66.7507 89.5293 66.6951 89.4766 66.6541 89.418C66.613 89.3594 66.5691 89.3037 66.5222 89.251C66.4812 89.1924 66.4343 89.1367 66.3816 89.084C66.3289 89.0312 66.2556 88.9873 66.1619 88.9521C66.115 88.9521 66.0242 88.9492 65.8894 88.9434C65.7605 88.9316 65.6228 88.9229 65.4763 88.917C65.3298 88.9053 65.1892 88.8965 65.0544 88.8906C64.9255 88.8789 64.8347 88.8701 64.782 88.8643H64.325C64.3191 88.8643 64.2927 88.8613 64.2458 88.8555C64.2048 88.8438 64.158 88.835 64.1052 88.8291C64.0525 88.8174 64.0027 88.8086 63.9558 88.8027C63.9089 88.791 63.8796 88.7852 63.8679 88.7852H63.7361H63.613C63.5896 88.7852 63.5369 88.791 63.4548 88.8027C63.3787 88.8086 63.2937 88.8174 63.2 88.8291C63.1121 88.835 63.0271 88.8438 62.9451 88.8555C62.8689 88.8613 62.822 88.8643 62.8044 88.8643H62.2859C62.2625 88.8643 62.2361 88.873 62.2068 88.8906C62.1775 88.9023 62.1628 88.9141 62.1628 88.9258V90.0156C62.157 90.2031 62.1306 90.3818 62.0837 90.5518C62.0369 90.7217 62.0134 90.8945 62.0134 91.0703C62.0134 91.334 62.0251 91.6006 62.0486 91.8701C62.0779 92.1338 62.0925 92.4033 62.0925 92.6787C62.0925 92.8662 62.0779 93.0566 62.0486 93.25C62.0251 93.4434 62.0134 93.6426 62.0134 93.8477V93.9092C62.031 93.9268 62.0544 93.9531 62.0837 93.9883C62.113 94.0176 62.1394 94.0322 62.1628 94.0322H62.3826H62.6111C62.6228 94.0322 62.6492 94.0293 62.6902 94.0234C62.7312 94.0117 62.7751 94.0029 62.822 93.9971C62.8689 93.9854 62.9099 93.9766 62.9451 93.9707C62.9861 93.959 63.0095 93.9531 63.0154 93.9531H63.7976C63.8386 93.9531 63.9119 93.9502 64.0173 93.9443C64.1287 93.9385 64.2429 93.9355 64.3601 93.9355C64.4832 93.9297 64.5974 93.9238 64.7029 93.918C64.8083 93.9121 64.8816 93.9092 64.9226 93.9092C65.0105 93.833 65.075 93.7217 65.116 93.5752C65.157 93.4229 65.198 93.2969 65.239 93.1973C65.2449 93.1797 65.2507 93.1387 65.2566 93.0742C65.2683 93.0039 65.28 92.9307 65.2917 92.8545C65.3035 92.7783 65.3152 92.708 65.3269 92.6436C65.3386 92.5732 65.3503 92.5293 65.3621 92.5117C65.3621 92.5059 65.3679 92.4912 65.3796 92.4678C65.3972 92.4385 65.4148 92.4121 65.4324 92.3887C65.45 92.3594 65.4646 92.333 65.4763 92.3096C65.4939 92.2861 65.5056 92.2715 65.5115 92.2656C65.5349 92.1895 65.5496 92.1074 65.5554 92.0195C65.5613 91.9316 65.5759 91.8525 65.5994 91.7822C65.6228 91.7061 65.6609 91.6445 65.7136 91.5977C65.7664 91.5508 65.8513 91.5273 65.9685 91.5273C66.0974 91.5273 66.1824 91.5566 66.2234 91.6152C66.2644 91.6738 66.2849 91.7705 66.2849 91.9053C66.2849 91.9521 66.282 91.9873 66.2761 92.0107C66.2703 92.0283 66.2585 92.0693 66.241 92.1338C66.241 92.1396 66.238 92.1543 66.2322 92.1777C66.2263 92.2012 66.2234 92.2275 66.2234 92.2568C66.2234 92.3037 66.2263 92.3477 66.2322 92.3887C66.238 92.4238 66.241 92.4502 66.241 92.4678C66.2351 92.5029 66.2292 92.5762 66.2234 92.6875C66.2175 92.7988 66.2087 92.9277 66.197 93.0742C66.1853 93.2207 66.1736 93.3789 66.1619 93.5488C66.1501 93.7129 66.1384 93.8711 66.1267 94.0234C66.115 94.1699 66.1033 94.2988 66.0916 94.4102C66.0857 94.5215 66.0798 94.5977 66.074 94.6387C66.074 94.6504 66.0769 94.7061 66.0828 94.8057C66.0886 94.8994 66.0916 94.9961 66.0916 95.0957C66.0916 95.1426 66.0857 95.1953 66.074 95.2539C66.0623 95.3066 66.0535 95.3418 66.0476 95.3594C66.0476 95.3594 66.0417 95.374 66.03 95.4033C66.0242 95.4326 66.0154 95.4678 66.0037 95.5088C65.9978 95.5439 65.989 95.5791 65.9773 95.6143C65.9714 95.6436 65.9685 95.6641 65.9685 95.6758C65.9685 95.6934 65.9714 95.7344 65.9773 95.7988C65.9832 95.8633 65.989 95.9336 65.9949 96.0098C66.0066 96.0801 66.0154 96.1475 66.0212 96.2119C66.0271 96.2705 66.03 96.3086 66.03 96.3262C66.03 96.3496 66.03 96.3848 66.03 96.4316C66.0359 96.4727 66.0388 96.5166 66.0388 96.5635C66.0388 96.6045 66.0388 96.6455 66.0388 96.6865C66.0447 96.7275 66.0476 96.7598 66.0476 96.7832C66.0476 96.8828 66.0359 96.9736 66.0125 97.0557C65.9949 97.1377 65.9539 97.2285 65.8894 97.3281C65.8835 97.3574 65.8542 97.3896 65.8015 97.4248C65.7546 97.4541 65.7253 97.4688 65.7136 97.4688C65.7019 97.4688 65.6697 97.4541 65.6169 97.4248C65.5642 97.3896 65.5291 97.3574 65.5115 97.3281C65.4119 97.2461 65.3416 97.1318 65.3005 96.9854C65.2654 96.8389 65.2419 96.6807 65.2302 96.5107C65.2185 96.335 65.2126 96.1562 65.2126 95.9746C65.2126 95.793 65.2009 95.626 65.1775 95.4736C65.1599 95.3154 65.1218 95.1836 65.0632 95.0781C65.0046 94.9727 64.9109 94.9082 64.782 94.8848C64.7351 94.8965 64.6619 94.9023 64.5623 94.9023C64.4626 94.9023 64.3542 94.9023 64.2371 94.9023C64.114 94.9023 63.9968 94.9023 63.8855 94.9023C63.78 94.9023 63.7097 94.8965 63.6746 94.8848C63.6453 94.8848 63.5984 94.8818 63.5339 94.876C63.4695 94.8701 63.4021 94.8672 63.3318 94.8672C63.2673 94.8613 63.2029 94.8555 63.1384 94.8496C63.0798 94.8438 63.0388 94.8408 63.0154 94.8408C63.0095 94.8232 62.9861 94.8027 62.9451 94.7793C62.9041 94.7559 62.8777 94.7441 62.866 94.7441H62.7781C62.6257 94.7441 62.4792 94.7822 62.3386 94.8584C62.2039 94.9287 62.1218 95.043 62.0925 95.2012C62.0867 95.2422 62.072 95.3242 62.0486 95.4473C62.031 95.5645 62.0105 95.6934 61.9871 95.834C61.9695 95.9746 61.949 96.1123 61.9255 96.2471C61.908 96.376 61.8962 96.4727 61.8904 96.5371V96.5898V96.6514C61.8904 96.6982 61.8933 96.7744 61.8992 96.8799C61.905 96.9854 61.9109 97.0996 61.9167 97.2227C61.9226 97.3398 61.9285 97.4541 61.9343 97.5654C61.946 97.6709 61.9519 97.7441 61.9519 97.7852C61.9812 97.832 61.9988 97.8672 62.0046 97.8906C62.0105 97.9141 62.0134 97.9404 62.0134 97.9697C62.0134 98.1982 62.0017 98.4209 61.9783 98.6377C61.9548 98.8545 61.9431 99.083 61.9431 99.3232C61.9431 99.3467 61.9431 99.3965 61.9431 99.4727C61.949 99.5488 61.9519 99.6016 61.9519 99.6309C61.9578 99.6426 61.9724 99.6631 61.9958 99.6924C62.0193 99.7158 62.0427 99.7422 62.0662 99.7715C62.0955 99.7949 62.1248 99.8184 62.1541 99.8418C62.1833 99.8652 62.2039 99.8799 62.2156 99.8857C62.2214 99.8975 62.2478 99.9062 62.2947 99.9121C62.3474 99.918 62.406 99.9238 62.4705 99.9297C62.5349 99.9297 62.5964 99.9355 62.655 99.9473C62.7195 99.9531 62.7693 99.959 62.8044 99.9648C62.8748 99.9648 62.9949 99.9678 63.1648 99.9736C63.3406 99.9795 63.5251 99.9854 63.7185 99.9912C63.9177 99.9971 64.1023 100.003 64.2722 100.009C64.448 100.009 64.571 100.009 64.6414 100.009C64.7117 100.038 64.782 100.059 64.8523 100.07C64.9285 100.082 65.0017 100.088 65.072 100.088H65.3181H65.7136C65.7195 100.088 65.74 100.085 65.7751 100.079C65.8103 100.067 65.8484 100.059 65.8894 100.053C65.9363 100.041 65.9773 100.032 66.0125 100.026C66.0476 100.015 66.0681 100.009 66.074 100.009H67.7439C67.8083 99.9912 67.8699 99.959 67.9285 99.9121C67.9871 99.8594 68.0427 99.8037 68.0955 99.7451C68.1482 99.6807 68.1951 99.6162 68.2361 99.5518C68.2771 99.4814 68.3123 99.4199 68.3416 99.3672C68.3591 99.3496 68.3826 99.3086 68.4119 99.2441C68.447 99.1797 68.4792 99.1123 68.5085 99.042C68.5437 98.9658 68.5759 98.8955 68.6052 98.8311C68.6345 98.7666 68.6521 98.7285 68.658 98.7168C68.6697 98.6992 68.696 98.6641 68.7371 98.6113C68.7781 98.5586 68.7986 98.5264 68.7986 98.5146C68.8044 98.5029 68.8162 98.4707 68.8337 98.418C68.8513 98.3652 68.8601 98.333 68.8601 98.3213C68.866 98.3154 68.8806 98.2979 68.9041 98.2686C68.9333 98.2393 68.9626 98.21 68.9919 98.1807C69.0212 98.1514 69.0476 98.1221 69.071 98.0928C69.0945 98.0635 69.1091 98.043 69.115 98.0312C69.1208 98.0254 69.1326 98.0078 69.1501 97.9785C69.1736 97.9434 69.1941 97.9053 69.2117 97.8643C69.2351 97.8174 69.2527 97.7764 69.2644 97.7412C69.282 97.7002 69.2937 97.6738 69.2996 97.6621C69.3113 97.6387 69.3435 97.6035 69.3962 97.5566C69.4548 97.5098 69.4871 97.4805 69.4929 97.4688C69.5046 97.457 69.5193 97.4482 69.5369 97.4424C69.5544 97.4307 69.5691 97.4189 69.5808 97.4072C69.5984 97.3955 69.616 97.3867 69.6335 97.3809C69.657 97.3926 69.6921 97.4219 69.739 97.4688C69.7859 97.5156 69.821 97.5508 69.8445 97.5742V97.6182C69.8445 97.6885 69.8328 97.7559 69.8093 97.8203C69.7917 97.8848 69.783 97.9492 69.783 98.0137C69.783 98.0957 69.7917 98.1689 69.8093 98.2334C69.8328 98.292 69.8445 98.3623 69.8445 98.4443V98.5146C69.8445 98.5322 69.8328 98.5645 69.8093 98.6113C69.7917 98.6582 69.783 98.6934 69.783 98.7168V99.7451C69.7771 99.8154 69.7683 99.9062 69.7566 100.018C69.7449 100.123 69.7214 100.226 69.6863 100.325C69.6511 100.419 69.6013 100.501 69.5369 100.571C69.4724 100.642 69.3875 100.677 69.282 100.677H69.238C69.2205 100.671 69.1912 100.665 69.1501 100.659C69.1091 100.653 69.0681 100.647 69.0271 100.642C68.9861 100.636 68.948 100.63 68.9128 100.624C68.8835 100.618 68.866 100.615 68.8601 100.615L68.8074 100.58C68.7722 100.557 68.7546 100.542 68.7546 100.536H68.7019H68.658C68.4529 100.606 68.2595 100.642 68.0779 100.642C67.8962 100.642 67.7058 100.653 67.5066 100.677C67.489 100.677 67.4568 100.68 67.4099 100.686C67.363 100.691 67.3103 100.697 67.2517 100.703C67.199 100.715 67.1492 100.727 67.1023 100.738C67.0554 100.75 67.0261 100.759 67.0144 100.765H66.9705C66.865 100.765 66.7654 100.75 66.6716 100.721C66.5837 100.691 66.4812 100.677 66.364 100.677C66.3523 100.677 66.3201 100.677 66.2673 100.677C66.2205 100.671 66.1648 100.668 66.1003 100.668C66.0417 100.668 65.9802 100.668 65.9158 100.668C65.8572 100.662 65.8074 100.659 65.7664 100.659Z" fill="#151618"/>
</svg>
