<svg width="23" height="17" viewBox="0 0 23 17" fill="none" xmlns="http://www.w3.org/2000/svg">
<path id="icon" fill-rule="evenodd" clip-rule="evenodd" d="M19.49 0.120605C21.1468 0.120605 22.49 1.46375 22.49 3.12061V13.1206C22.49 14.7775 21.1468 16.1206 19.49 16.1206H3.48999C1.83314 16.1206 0.48999 14.7775 0.48999 13.1206V3.12061C0.48999 1.46375 1.83314 0.120605 3.48999 0.120605H19.49ZM18.7428 2.12061H4.23717L10.8704 7.35734C11.2337 7.64416 11.7463 7.64416 12.1096 7.35734L18.7428 2.12061ZM2.48999 3.28941V13.1206C2.48999 13.6729 2.93771 14.1206 3.48999 14.1206H19.49C20.0423 14.1206 20.49 13.6729 20.49 13.1206V3.28943L13.3489 8.9271C12.259 9.78757 10.721 9.78757 9.63107 8.9271L2.48999 3.28941Z" fill="#151618"/>
</svg>
