<svg width="32" height="11" viewBox="0 0 32 11" fill="none" xmlns="http://www.w3.org/2000/svg">
<rect width="32" height="11" fill="#1E1E1E"/>
<g clip-path="url(#clip0_0_1)">
<rect width="1599" height="4514" transform="translate(-555.51 -4478.88)" fill="white"/>
<rect x="-555.51" y="-557.879" width="1600" height="593" fill="#F7F2EA"/>
<path d="M16.5224 3.31749C16.5048 4.71053 17.7652 5.48786 18.7147 5.95007C19.6903 6.42425 20.0179 6.72836 20.0141 7.15247C20.0068 7.80145 19.2359 8.0879 18.5146 8.09903C17.256 8.1185 16.5243 7.7596 15.9425 7.48815L15.4891 9.60735C16.0728 9.87601 17.1536 10.1103 18.2743 10.1206C20.9051 10.1206 22.6262 8.82337 22.6355 6.81207C22.6458 4.25945 19.101 4.11816 19.1252 2.97721C19.1336 2.63125 19.4641 2.26206 20.1882 2.16819C20.5466 2.12077 21.5361 2.08449 22.6579 2.60052L23.0982 0.550155C22.4949 0.330723 21.7195 0.120605 20.7542 0.120605C18.2781 0.120605 16.5365 1.4355 16.5224 3.31749ZM27.329 0.297215C26.8486 0.297215 26.4438 0.57713 26.2631 1.00668L22.5052 9.97H25.134L25.6571 8.52579H28.8695L29.173 9.97H31.49L29.4681 0.297215H27.329ZM27.6967 2.9102L28.4554 6.54244H26.3777L27.6967 2.9102ZM13.3351 0.297337L11.263 9.96988H13.768L15.8392 0.297094L13.3351 0.297337ZM9.6293 0.297094L7.02191 6.8809L5.96718 1.28297C5.84342 0.658056 5.35469 0.297215 4.81195 0.297215H0.549689L0.48999 0.578097C1.36501 0.767772 2.35919 1.07369 2.96151 1.40103C3.33012 1.60098 3.43523 1.77578 3.55633 2.25093L5.55401 9.97H8.20124L12.2598 0.297215L9.6293 0.297094Z" fill="url(#paint0_linear_0_1)"/>
</g>
<defs>
<linearGradient id="paint0_linear_0_1" x1="1425.68" y1="30.1806" x2="1454.6" y2="-996.836" gradientUnits="userSpaceOnUse">
<stop stop-color="#222357"/>
<stop offset="1" stop-color="#254AA5"/>
</linearGradient>
<clipPath id="clip0_0_1">
<rect width="1599" height="4514" fill="white" transform="translate(-555.51 -4478.88)"/>
</clipPath>
</defs>
</svg>
