<svg width="30" height="13" viewBox="0 0 30 13" fill="none" xmlns="http://www.w3.org/2000/svg">
<rect width="30" height="13" fill="#1E1E1E"/>
<g clip-path="url(#clip0_0_1)">
<rect width="1599" height="4514" transform="translate(-606.51 -4477.88)" fill="white"/>
<rect x="-606.51" y="-556.879" width="1600" height="593" fill="#F7F2EA"/>
<g clip-path="url(#clip1_0_1)">
<path d="M21.0464 3.35928C21.8436 3.35928 22.4597 3.58511 22.9309 4.03675C23.4019 4.48834 23.6193 5.09052 23.6193 5.84322V9.45617H22.6047V8.62828H22.5684C22.1336 9.30575 21.5175 9.64446 20.7927 9.64446C20.1766 9.64446 19.6331 9.45622 19.1982 9.07993C18.7996 8.70358 18.5459 8.17669 18.5459 7.61217C18.5459 7.00999 18.7634 6.5207 19.1982 6.14434C19.6331 5.76799 20.2491 5.61746 20.9739 5.61746C21.6262 5.61746 22.1336 5.7304 22.5322 5.99381V5.7304C22.5322 5.37911 22.4059 5.02787 22.1533 4.79899L22.0973 4.75187C21.8074 4.4884 21.445 4.33787 21.0464 4.33787C20.4303 4.33787 19.9593 4.60134 19.6331 5.12822L18.6909 4.52593C19.2707 3.73558 20.0317 3.35928 21.0464 3.35928ZM15.9368 0.800108C16.587 0.800108 17.2049 1.03511 17.699 1.47334L17.7849 1.55275C18.2923 2.0044 18.5459 2.68187 18.5459 3.39693C18.5459 4.11199 18.2923 4.75181 17.7849 5.24105C17.2776 5.73034 16.6615 5.99375 15.9368 5.99375L14.1973 5.95611V9.45622H13.1101V0.800049L15.9368 0.800108ZM21.1913 6.5207C20.7565 6.5207 20.3941 6.63358 20.1042 6.8594C19.8143 7.04758 19.6693 7.31099 19.6693 7.64969C19.6693 7.95081 19.8143 8.21422 20.0317 8.36481C20.2854 8.55299 20.5753 8.66587 20.8652 8.66587C21.2711 8.66587 21.6769 8.50193 21.9944 8.20469L22.0611 8.13899C22.4235 7.80028 22.6047 7.38628 22.6047 6.93464C22.2785 6.67122 21.8074 6.52064 21.1914 6.52064L21.1913 6.5207ZM16.0093 1.85387H14.1973V4.86475H16.0093C16.4078 4.86475 16.8065 4.71422 17.0602 4.41317C17.6399 3.84864 17.6399 2.90775 17.0964 2.34317L17.0602 2.30552C16.7702 2.00446 16.4078 1.81628 16.0092 1.85393L16.0093 1.85387ZM29.49 3.54746L25.9024 12.0907H24.8152L26.156 9.11752L23.8005 3.58511H24.9602L26.6634 7.83787H26.6996L28.3666 3.58511H29.49V3.54746Z" fill="#5F6368"/>
<path d="M9.88494 5.20337C9.88494 4.86467 9.84869 4.52596 9.81244 4.18726H5.28271V6.10667H7.85562C7.74692 6.70879 7.42079 7.27331 6.91346 7.61208V8.85402H8.4717C9.37766 7.98843 9.88499 6.70878 9.88499 5.20343L9.88494 5.20337Z" fill="#4285F4"/>
<path d="M5.28249 10.0583C6.58704 10.0583 7.6742 9.6066 8.47147 8.8539L6.91323 7.61196C6.47834 7.91302 5.93476 8.10119 5.28249 8.10119C4.05033 8.10119 2.96317 7.2356 2.60078 6.03125H1.00635V7.31084C1.83981 9.00443 3.47055 10.0583 5.28249 10.0583Z" fill="#34A853"/>
<path d="M2.60086 6.03128C2.38347 5.4291 2.38347 4.75169 2.60086 4.11186V2.83228H1.00643C0.317845 4.2248 0.317845 5.88075 1.00643 7.31086L2.60086 6.03128Z" fill="#FBBC04"/>
<path d="M5.28267 2.07968C5.97119 2.07968 6.62347 2.34315 7.13086 2.83239L8.5079 1.40227C7.63813 0.574273 6.47853 0.0850373 5.31887 0.122625C3.50693 0.122625 1.84 1.17645 1.04272 2.87004L2.63721 4.14963C2.96335 2.94527 4.05051 2.07968 5.28267 2.07968Z" fill="#EA4335"/>
</g>
</g>
<defs>
<clipPath id="clip0_0_1">
<rect width="1599" height="4514" fill="white" transform="translate(-606.51 -4477.88)"/>
</clipPath>
<clipPath id="clip1_0_1">
<rect width="29" height="12" fill="white" transform="translate(0.48999 0.120605)"/>
</clipPath>
</defs>
</svg>
