<svg width="27" height="21" viewBox="0 0 27 21" fill="none" xmlns="http://www.w3.org/2000/svg">
<rect width="27" height="21" fill="#1E1E1E"/>
<g clip-path="url(#clip0_0_1)">
<rect width="1599" height="4514" transform="translate(-509.51 -4473.88)" fill="white"/>
<rect x="-509.51" y="-552.879" width="1600" height="593" fill="#F7F2EA"/>
<g clip-path="url(#clip1_0_1)">
<path d="M5.2167 20.0213V18.6976C5.2167 18.1901 4.9045 17.8592 4.36936 17.8592C4.10185 17.8592 3.81199 17.9475 3.6113 18.2343C3.4553 17.9916 3.23237 17.8592 2.89793 17.8592C2.6749 17.8592 2.45207 17.9253 2.27362 18.1681V17.9033H1.80542V20.0213H2.27362V18.852C2.27362 18.477 2.47431 18.3004 2.78651 18.3004C3.09851 18.3004 3.25472 18.499 3.25472 18.852V20.0213H3.72292V18.852C3.72292 18.477 3.94575 18.3004 4.23561 18.3004C4.54781 18.3004 4.70381 18.499 4.70381 18.852V20.0213H5.2167ZM12.1505 17.9033H11.3925V17.2635H10.9243V17.9033H10.5007V18.3224H10.9242V19.2933C10.9242 19.7787 11.1249 20.0654 11.66 20.0654C11.8607 20.0654 12.0835 19.9993 12.2397 19.9111L12.1059 19.5139C11.9721 19.6021 11.8161 19.6242 11.7046 19.6242C11.4817 19.6242 11.3925 19.4919 11.3925 19.2712V18.3224H12.1505V17.9033ZM16.1191 17.8591C15.8516 17.8591 15.6733 17.9916 15.5618 18.1681V17.9033H15.0936V20.0213H15.5618V18.83C15.5618 18.477 15.7178 18.2784 16.0076 18.2784C16.0968 18.2784 16.2083 18.3005 16.2975 18.3225L16.4312 17.8813C16.3421 17.8592 16.2083 17.8592 16.1191 17.8592V17.8591ZM10.1217 18.0798C9.89863 17.9253 9.58653 17.8592 9.25208 17.8592C8.71705 17.8592 8.36036 18.1239 8.36036 18.5431C8.36036 18.8962 8.62788 19.0947 9.09608 19.1609L9.31901 19.183C9.56429 19.2271 9.69804 19.2933 9.69804 19.4036C9.69804 19.558 9.5197 19.6684 9.2075 19.6684C8.8954 19.6684 8.65012 19.558 8.49402 19.4478L8.27109 19.8007C8.51636 19.9772 8.85081 20.0654 9.18515 20.0654C9.80946 20.0654 10.1662 19.7787 10.1662 19.3815C10.1662 19.0064 9.87639 18.8079 9.43043 18.7417L9.2075 18.7196C9.00681 18.6975 8.85081 18.6535 8.85081 18.5211C8.85081 18.3666 9.00681 18.2784 9.25208 18.2784C9.5197 18.2784 9.78722 18.3887 9.92097 18.4549L10.1217 18.0798ZM22.5626 17.8592C22.2949 17.8592 22.1166 17.9916 22.0051 18.1681V17.9033H21.5369V20.0213H22.0051V18.83C22.0051 18.477 22.1612 18.2784 22.4509 18.2784C22.5402 18.2784 22.6517 18.3005 22.7409 18.3225L22.8747 17.8813C22.7855 17.8592 22.6517 17.8592 22.5626 17.8592ZM16.5873 18.9623C16.5873 19.6021 17.0332 20.0654 17.7244 20.0654C18.0365 20.0654 18.2595 19.9993 18.4824 19.8228L18.2595 19.4478C18.0811 19.5801 17.9028 19.6462 17.7021 19.6462C17.3231 19.6462 17.0555 19.3815 17.0555 18.9623C17.0555 18.5652 17.3231 18.3004 17.7021 18.2784C17.9028 18.2784 18.0811 18.3445 18.2595 18.477L18.4824 18.1019C18.2595 17.9253 18.0365 17.8592 17.7244 17.8592C17.0332 17.8592 16.5873 18.3225 16.5873 18.9623ZM20.9127 18.9623V17.9033H20.4445V18.1681C20.2884 17.9696 20.0654 17.8592 19.7756 17.8592C19.1736 17.8592 18.7054 18.3225 18.7054 18.9623C18.7054 19.6021 19.1736 20.0654 19.7756 20.0654C20.0877 20.0654 20.3107 19.9552 20.4445 19.7566V20.0213H20.9127V18.9623ZM19.1959 18.9623C19.1959 18.5873 19.4411 18.2784 19.8424 18.2784C20.2214 18.2784 20.4891 18.5652 20.4891 18.9623C20.4891 19.3374 20.2214 19.6462 19.8424 19.6462C19.4411 19.6241 19.1959 19.3374 19.1959 18.9623ZM13.5998 17.8592C12.9755 17.8592 12.5295 18.3004 12.5295 18.9623C12.5295 19.6242 12.9754 20.0654 13.622 20.0654C13.9341 20.0654 14.2463 19.9772 14.4916 19.7787L14.2686 19.4478C14.0902 19.5801 13.8673 19.6684 13.6444 19.6684C13.3545 19.6684 13.0646 19.536 12.9977 19.1608H14.5808V18.9844C14.6031 18.3004 14.2018 17.8592 13.5998 17.8592ZM13.5998 18.2563C13.8895 18.2563 14.0903 18.4329 14.1348 18.7638H13.0201C13.0646 18.477 13.2653 18.2563 13.5998 18.2563ZM25.2157 18.9623V17.0649H24.7475V18.1681C24.5914 17.9696 24.3684 17.8592 24.0786 17.8592C23.4766 17.8592 23.0084 18.3225 23.0084 18.9623C23.0084 19.6021 23.4766 20.0654 24.0786 20.0654C24.3908 20.0654 24.6137 19.9552 24.7475 19.7566V20.0213H25.2157V18.9623ZM23.499 18.9623C23.499 18.5873 23.7441 18.2784 24.1455 18.2784C24.5245 18.2784 24.7921 18.5652 24.7921 18.9623C24.7921 19.3374 24.5245 19.6462 24.1455 19.6462C23.7441 19.6241 23.499 19.3374 23.499 18.9623ZM7.84747 18.9623V17.9033H7.37927V18.1681C7.22317 17.9696 7.00024 17.8592 6.71038 17.8592C6.10842 17.8592 5.64022 18.3225 5.64022 18.9623C5.64022 19.6021 6.10842 20.0654 6.71038 20.0654C7.02258 20.0654 7.24551 19.9552 7.37927 19.7566V20.0213H7.84747V18.9623ZM6.10842 18.9623C6.10842 18.5873 6.35369 18.2784 6.75497 18.2784C7.134 18.2784 7.40162 18.5652 7.40162 18.9623C7.40162 19.3374 7.134 19.6462 6.75497 19.6462C6.35369 19.6241 6.10842 19.3374 6.10842 18.9623Z" fill="#151618"/>
<path d="M9.96558 1.81934H16.9886V14.3069H9.96558V1.81934Z" fill="#FF5F00"/>
<path d="M10.4115 8.06322C10.4115 5.52603 11.6155 3.27558 13.4659 1.8194C12.106 0.760404 10.3893 0.120605 8.51647 0.120605C4.07951 0.120605 0.48999 3.67267 0.48999 8.06322C0.48999 12.4537 4.07951 16.0058 8.51637 16.0058C10.3892 16.0058 12.1059 15.366 13.4659 14.3069C11.6155 12.8729 10.4115 10.6004 10.4115 8.06322Z" fill="#EB001B"/>
<path d="M26.4642 8.06322C26.4642 12.4537 22.8747 16.0058 18.4378 16.0058C16.565 16.0058 14.8483 15.366 13.4883 14.3069C15.3611 12.8509 16.5428 10.6004 16.5428 8.06322C16.5428 5.52603 15.3388 3.27558 13.4883 1.8194C14.8482 0.760404 16.565 0.120605 18.4378 0.120605C22.8747 0.120605 26.4642 3.69478 26.4642 8.06322Z" fill="#F79E1B"/>
</g>
</g>
<defs>
<clipPath id="clip0_0_1">
<rect width="1599" height="4514" fill="white" transform="translate(-509.51 -4473.88)"/>
</clipPath>
<clipPath id="clip1_0_1">
<rect width="26" height="20" fill="white" transform="translate(0.48999 0.120605)"/>
</clipPath>
</defs>
</svg>
