<svg width="11" height="13" viewBox="0 0 11 13" fill="none" xmlns="http://www.w3.org/2000/svg">
<rect width="11" height="13" fill="#1E1E1E"/>
<g clip-path="url(#clip0_0_1)">
<rect width="1599" height="4514" transform="translate(-655.51 -4477.88)" fill="white"/>
<rect x="-655.51" y="-556.879" width="1600" height="593" fill="#F7F2EA"/>
<g clip-path="url(#clip1_0_1)">
<path d="M8.97297 1.05471C8.42867 0.423632 7.44477 0.153076 6.18606 0.153076H2.53293C2.40839 0.153081 2.28794 0.198276 2.19323 0.280537C2.09852 0.362798 2.03577 0.476728 2.01625 0.601844L0.495158 10.4151C0.464924 10.6086 0.612229 10.7838 0.805041 10.7838H3.06035L3.62676 7.12937L3.60918 7.2438C3.64953 6.98549 3.86672 6.79496 4.12391 6.79496H5.19563C7.30102 6.79496 8.94957 5.92508 9.43114 3.40869C9.44543 3.33427 9.45782 3.26183 9.46852 3.19106C9.40774 3.15832 9.40774 3.15832 9.46852 3.19106C9.61192 2.26098 9.46754 1.62788 8.97297 1.05471Z" fill="#27346A"/>
<path d="M4.48973 2.85602C4.55139 2.82615 4.61882 2.81068 4.68711 2.81072H7.5511C7.89024 2.81072 8.20656 2.83317 8.49563 2.88049C8.57651 2.89361 8.65698 2.90928 8.73692 2.92746C8.85021 2.95289 8.9622 2.98401 9.07246 3.02072C9.21457 3.069 9.34692 3.12522 9.46856 3.19106C9.61192 2.26063 9.46754 1.62788 8.97297 1.05471C8.42836 0.423632 7.44477 0.153076 6.18606 0.153076H2.53262C2.27539 0.153076 2.05656 0.343566 2.01625 0.601844L0.495158 10.4147C0.464924 10.6086 0.612229 10.7836 0.804729 10.7836H3.06035L4.23547 3.2033C4.24703 3.12879 4.2762 3.05826 4.32049 2.99776C4.36478 2.93727 4.42286 2.88862 4.48973 2.85602Z" fill="#27346A"/>
<path d="M9.43136 3.40855C8.94979 5.92457 7.30128 6.79481 5.19585 6.79481H4.12382C3.86663 6.79481 3.6494 6.98534 3.60944 7.24366L2.90479 11.7876C2.87847 11.9569 3.00722 12.1104 3.17565 12.1104H5.07682C5.18573 12.1103 5.29105 12.0708 5.37385 11.9988C5.45665 11.9269 5.51148 11.8272 5.5285 11.7178L5.54702 11.6192L5.90534 9.30921L5.92843 9.18154C5.94544 9.07213 6.00028 8.97248 6.08307 8.90052C6.16586 8.82855 6.27117 8.789 6.38007 8.78896H6.6646C8.50628 8.78896 9.94835 8.02787 10.3698 5.82671C10.5457 4.90684 10.4546 4.13884 9.98933 3.59939C9.84819 3.436 9.67292 3.30106 9.46874 3.19092C9.45768 3.26204 9.44569 3.33412 9.43136 3.40855Z" fill="#2790C3"/>
<path d="M8.96466 2.98653C8.88957 2.96423 8.81377 2.94449 8.73739 2.92733C8.65742 2.90944 8.57695 2.89389 8.4961 2.88068C8.20673 2.83304 7.89063 2.81055 7.55118 2.81055H4.68755C4.61921 2.81039 4.55172 2.826 4.49017 2.8562C4.42322 2.88871 4.36508 2.93732 4.32077 2.99784C4.27646 3.05835 4.24732 3.12894 4.23587 3.20349L3.6272 7.12924L3.60962 7.24367C3.64966 6.98536 3.86685 6.79483 4.12407 6.79483H5.1961C7.30149 6.79483 8.95001 5.92495 9.43157 3.40856C9.44591 3.33414 9.45794 3.26202 9.46899 3.19093C9.34704 3.12545 9.21505 3.06887 9.0729 3.02091C9.03703 3.00881 9.00096 2.99735 8.9647 2.98653" fill="#1F264F"/>
</g>
</g>
<defs>
<clipPath id="clip0_0_1">
<rect width="1599" height="4514" fill="white" transform="translate(-655.51 -4477.88)"/>
</clipPath>
<clipPath id="clip1_0_1">
<rect width="10" height="12" fill="white" transform="translate(0.48999 0.120605)"/>
</clipPath>
</defs>
</svg>
