<svg width="22" height="21" viewBox="0 0 22 21" fill="none" xmlns="http://www.w3.org/2000/svg">
<path id="icon" fill-rule="evenodd" clip-rule="evenodd" d="M16.2549 20.845C14.2348 20.3389 10.0993 18.9121 6.35015 15.1629C2.60104 11.4138 1.17419 7.27832 0.668065 5.25823C0.377201 4.09732 0.900967 2.97707 1.78908 2.3427L4.11733 0.679666C5.47961 -0.293389 7.37471 0.0368004 8.32763 1.41324L9.79342 3.5305C10.4156 4.42923 10.201 5.66103 9.31151 6.29638L8.14273 7.13123C8.31962 7.80783 8.86978 9.1973 10.5928 10.9203C12.3158 12.6433 13.7053 13.1935 14.3819 13.3704L15.2167 12.2016C15.8521 11.3121 17.0839 11.0975 17.9826 11.7197L20.0999 13.1855C21.4763 14.1384 21.8065 16.0335 20.8334 17.3958L19.1704 19.724C18.536 20.6121 17.4158 21.1359 16.2549 20.845ZM7.76436 13.7487C11.1737 17.1581 14.9362 18.4528 16.7409 18.905C17.0047 18.9711 17.3236 18.8686 17.5429 18.5615L19.206 16.2333C19.5303 15.7792 19.4202 15.1475 18.9614 14.8299L16.8442 13.3641L15.9483 14.6183C15.5822 15.1309 14.9051 15.5329 14.1167 15.3628C13.1327 15.1505 11.3137 14.4696 9.17858 12.3345C7.04349 10.1994 6.36258 8.38043 6.15027 7.39643C5.98016 6.60804 6.3822 5.93094 6.89478 5.56482L8.14904 4.66892L6.68324 2.55166C6.3656 2.09284 5.7339 1.98278 5.27981 2.30713L2.95156 3.97017C2.64452 4.18948 2.54201 4.50838 2.6081 4.77216C3.06028 6.57691 4.35498 10.3394 7.76436 13.7487Z" fill="#151618"/>
</svg>
