<svg width="65" height="64" viewBox="0 0 65 64" fill="none" xmlns="http://www.w3.org/2000/svg">
<path d="M29.2533 2.86925C30.2435 2.36713 31.3574 2.10364 32.49 2.10364C33.6226 2.10364 34.7365 2.36713 35.7267 2.86925L60.7767 15.5744C61.296 15.8381 61.7287 16.2238 62.0299 16.6916C62.3312 17.1593 62.49 17.6921 62.49 18.2347V43.301C62.4897 44.3866 62.1715 45.4524 61.5685 46.3879C60.9654 47.3234 60.0993 48.0947 59.06 48.6217L35.7267 60.4624C34.7365 60.9645 33.6226 61.228 32.49 61.228C31.3574 61.228 30.2435 60.9645 29.2533 60.4624L5.91999 48.6217C4.88118 48.0949 4.01543 47.3242 3.41237 46.3892C2.80932 45.4543 2.49087 44.3891 2.48999 43.3041V18.2347C2.48997 17.6921 2.6488 17.1593 2.95004 16.6916C3.25128 16.2238 3.68398 15.8381 4.20332 15.5744L29.2533 2.86925Z" stroke="#754E29" stroke-width="4.16667" stroke-linecap="round" stroke-linejoin="round"/>
<path d="M2.48999 16.4458L32.49 31.6652M32.49 31.6652L62.49 16.4458M32.49 31.6652V62.1039" stroke="#754E29" stroke-width="4.16667" stroke-linejoin="round"/>
<path d="M17.49 24.0551L47.49 8.83569M12.49 32.6631L22.49 37.7525" stroke="#754E29" stroke-width="4.16667" stroke-linecap="round" stroke-linejoin="round"/>
</svg>
