<svg width="61" height="61" viewBox="0 0 61 61" fill="none" xmlns="http://www.w3.org/2000/svg">
<path d="M26.046 0.274863L26.0317 0.254851L25.9946 0.28344C11.6604 1.80723 0.48999 13.9489 0.48999 28.7093C0.48999 35.3191 2.7315 41.4056 6.49495 46.2486V46.2543H6.50066C8.87976 49.3229 11.8593 51.8732 15.2568 53.7491C18.6544 55.6249 22.3986 56.7869 26.2602 57.1638C26.3944 55.803 26.7256 54.3793 27.2225 52.9412C21.0624 52.4833 15.3102 49.685 11.1436 45.1193C11.3006 44.4332 11.372 43.6356 11.4291 42.9437L11.4548 42.6064C11.5062 41.9774 11.5548 41.3713 11.6347 40.7595C11.8346 39.2529 12.1772 38.2466 12.7112 37.6777C13.3965 36.9429 14.0989 36.82 15.5695 36.5598L15.835 36.5112C16.5889 36.3797 17.5968 36.1767 18.5677 35.6479C19.6042 35.0818 20.4808 34.2184 21.1404 32.9462C21.8057 31.6654 21.7572 30.3446 21.5744 29.3011C21.4082 28.4656 21.1889 27.6415 20.9177 26.8339C20.8734 26.693 20.8297 26.552 20.7863 26.4108C20.201 24.5011 20.1296 23.5719 20.6122 22.8372C21.1376 22.0367 21.8571 21.8537 23.7303 21.3677L23.973 21.3077C25.8747 20.816 28.4503 19.9926 29.9408 16.8107C31.557 13.3657 30.6461 9.48047 29.6553 6.84458C29.3428 6.01652 28.9873 5.20539 28.5902 4.41453C28.7415 4.40881 28.8929 4.40881 29.0442 4.40881C33.6281 4.4018 38.1194 5.70075 41.9936 8.15395C41.4453 8.88297 40.7115 9.84355 39.892 10.8699C38.0931 13.1198 36.0657 15.4355 34.6837 16.4733C34.0473 16.9388 33.5641 17.5839 33.2959 18.3259C33.0652 19.0004 33.0111 19.7229 33.1389 20.4243C33.3388 21.6136 33.9698 22.7285 34.5295 23.5805C34.9949 24.2924 35.5432 25.0099 36.0029 25.616L36.317 26.0248C36.5825 26.3822 36.8024 26.6767 36.9652 26.9311C37.048 27.054 37.1079 27.1541 37.1479 27.2284C37.1879 27.2999 37.2022 27.3371 37.205 27.3399C37.3192 27.6544 37.442 28.169 37.5848 28.8837L37.6476 29.1868C38.9154 28.6207 40.2889 28.1862 41.7594 27.9146C41.6301 27.2164 41.4506 26.5285 41.2226 25.8562C40.9085 25.0071 40.2261 24.0951 39.7349 23.4433C39.6116 23.281 39.4878 23.119 39.3637 22.9573C38.9259 22.3955 38.5078 21.8186 38.1102 21.2276C37.6676 20.5529 37.4534 20.0869 37.3821 19.8039C39.2381 18.3687 41.5167 15.6985 43.2357 13.5515C44.0809 12.4937 44.8347 11.5074 45.3972 10.7527C50.1069 15.0435 52.9383 21.0194 53.2782 27.3857C54.9343 27.5172 56.362 27.7345 57.5899 27.9889C57.2073 12.5338 44.5749 0.120483 29.0442 0.120483C28.0334 0.120483 27.0311 0.171943 26.046 0.274863ZM7.4458 39.8047C5.74407 36.4825 4.82952 32.8125 4.77309 29.0793C4.71665 25.3461 5.51985 21.6501 7.12038 18.2779C8.72092 14.9057 11.0758 11.9479 14.0023 9.63393C16.9289 7.31997 20.3484 5.71205 23.9958 4.93485C24.6454 6.02418 25.1986 7.16828 25.6491 8.35407C26.5457 10.7412 26.9055 13.1884 26.066 14.9867C25.4235 16.3532 24.5098 16.7392 22.9022 17.1537L22.4396 17.2681C20.9205 17.6369 18.5248 18.2144 17.0343 20.4786C15.3182 23.0859 16.1634 25.9419 16.6917 27.6687L16.863 28.2176C17.0914 28.9466 17.2627 29.5041 17.3541 30.0359C17.4626 30.6562 17.3827 30.8821 17.3427 30.965C17.0572 31.5168 16.7716 31.7426 16.5203 31.8798C16.2062 32.0514 15.7951 32.1657 15.0869 32.2887C14.9727 32.3115 14.8471 32.3315 14.7157 32.3516C13.3936 32.5688 11.2921 32.9148 9.58166 34.753C8.19392 36.2396 7.68851 38.2123 7.4458 39.8047ZM29.0642 57.8843C29.2355 55.1254 30.4776 51.7605 32.5849 48.59C33.2674 47.4293 34.1097 46.2543 35.1148 45.1079C38.5027 41.249 42.9785 38.508 47.9528 37.246C48.3205 37.1538 48.6366 36.9193 48.8315 36.5938C49.0264 36.2684 49.0842 35.8787 48.9922 35.5106C48.9002 35.1425 48.6659 34.8261 48.3408 34.6309C48.0158 34.4357 47.6266 34.3779 47.259 34.47C41.7212 35.8736 36.7384 38.9248 32.9676 43.221C32.2052 44.093 31.5113 44.9993 30.8945 45.917C30.6134 44.9715 30.471 43.9902 30.4719 43.0038C30.4719 40.3822 31.8054 37.5347 33.9184 35.2762C36.3282 32.7093 39.5523 31.0584 43.0415 30.6048C51.0367 29.547 55.9994 30.4332 58.9262 31.2537C59.3215 31.3646 59.6767 31.587 59.9493 31.8942C60.222 32.2015 60.4007 32.5807 60.4642 32.9868C60.5277 33.3929 60.4733 33.8087 60.3074 34.1847C60.1416 34.5607 59.8713 34.881 59.5287 35.1075C59.366 35.2162 59.1033 35.4792 58.7863 36.0795C58.4119 36.8368 58.1061 37.6261 57.8726 38.4381C57.6241 39.25 57.3871 40.1277 57.1302 41.0826L56.9645 41.6887C56.6476 42.8608 56.2964 44.1187 55.8738 45.3652C55.04 47.8296 53.8636 50.4597 51.8848 52.4781C49.8317 54.5737 47.0448 55.8802 43.3213 55.8802C39.5265 55.8802 36.8766 54.3392 35.1834 52.5667C34.0298 54.6823 33.4301 56.6749 33.3388 58.1444C33.2948 58.7048 33.0328 59.2254 32.6091 59.5942C32.1855 59.9631 31.6342 60.1506 31.0739 60.1165C30.5135 60.0824 29.9889 59.8294 29.6131 59.4119C29.2372 58.9944 29.0401 58.4458 29.0642 57.8843Z" fill="#754E29"/>
</svg>
