<svg width="61" height="61" viewBox="0 0 61 61" fill="none" xmlns="http://www.w3.org/2000/svg">
<path d="M30.49 0.120483C13.948 0.120483 0.48999 13.5785 0.48999 30.1205V42.5495C0.48999 45.6215 3.18099 48.1205 6.48999 48.1205H9.48999C10.2856 48.1205 11.0487 47.8044 11.6113 47.2418C12.1739 46.6792 12.49 45.9161 12.49 45.1205V29.6915C12.49 28.8958 12.1739 28.1328 11.6113 27.5702C11.0487 27.0076 10.2856 26.6915 9.48999 26.6915H6.76599C8.43399 15.0815 18.424 6.12048 30.49 6.12048C42.556 6.12048 52.546 15.0815 54.214 26.6915H51.49C50.6943 26.6915 49.9313 27.0076 49.3687 27.5702C48.8061 28.1328 48.49 28.8958 48.49 29.6915V48.1205C48.49 51.4295 45.799 54.1205 42.49 54.1205H36.49V51.1205H24.49V60.1205H42.49C49.108 60.1205 54.49 54.7385 54.49 48.1205C57.799 48.1205 60.49 45.6215 60.49 42.5495V30.1205C60.49 13.5785 47.032 0.120483 30.49 0.120483Z" fill="#754E29"/>
</svg>
