<svg width="61" height="61" viewBox="0 0 61 61" fill="none" xmlns="http://www.w3.org/2000/svg">
<path d="M51.3761 16.6051C51.3775 18.1251 51.1659 19.638 50.7472 21.1009H55.6687C58.333 21.1009 60.49 23.2289 60.49 25.8544V40.5826C60.49 44.2441 59.4442 47.8314 57.4725 50.9333C55.5007 54.0352 52.6828 56.5261 49.3419 58.1205C46.001 59.7149 42.2724 60.3481 38.5834 59.9477C34.8944 59.5472 31.3945 58.1292 28.4849 55.8563L24.8849 59.405C24.6763 59.6259 24.4248 59.803 24.1453 59.9259C23.8658 60.0487 23.5641 60.1148 23.2582 60.1201C22.9522 60.1255 22.6483 60.0699 22.3646 59.9569C22.0809 59.8438 21.8232 59.6755 21.6068 59.4621C21.3905 59.2486 21.2199 58.9944 21.1053 58.7145C20.9907 58.4346 20.9344 58.1348 20.9398 57.8329C20.9452 57.5311 21.0122 57.2334 21.1367 56.9577C21.2613 56.682 21.4408 56.4338 21.6647 56.228L25.2616 52.6763C24.053 51.1729 23.0764 49.5013 22.3634 47.716C19.7148 48.2494 16.979 48.1949 14.3544 47.5564C11.7297 46.918 9.28185 45.7116 7.18809 44.0247C5.09434 42.3377 3.40711 40.2124 2.24863 37.8028C1.09016 35.3931 0.489439 32.7594 0.489991 30.0924V16.647C0.489991 14.1414 2.54974 12.1093 5.08948 12.1093H18.5872C19.5802 8.65694 21.6876 5.61842 24.5896 3.45478C27.4916 1.29114 31.0297 0.120493 34.6672 0.120483H47.0014C49.4166 0.120483 51.3761 2.05368 51.3761 4.43645V16.6051ZM23.1897 12.6548C25.7113 13.2863 28.0671 14.4419 30.0994 16.0443C32.1317 17.6466 33.7937 19.6588 34.974 21.9461C36.8441 21.3841 38.7883 21.0993 40.7432 21.1009H45.9381C46.5218 19.672 46.8209 18.1456 46.8191 16.6051V4.61628H34.6672C32.1453 4.6163 29.6859 5.39002 27.6295 6.83025C25.5731 8.27049 24.0215 10.306 23.1897 12.6548ZM31.7356 52.6493C33.9979 54.2931 36.6781 55.2856 39.478 55.5165C42.2779 55.7474 45.0879 55.2076 47.5954 53.9571C50.103 52.7067 52.2099 50.7946 53.6818 48.4334C55.1537 46.0723 55.933 43.3546 55.933 40.5826V25.8544C55.933 25.8206 55.9263 25.787 55.9131 25.7558C55.9 25.7245 55.8808 25.6961 55.8565 25.6721C55.8322 25.6482 55.8034 25.6292 55.7717 25.6163C55.74 25.6033 55.7061 25.5967 55.6718 25.5967H40.7432C37.9335 25.5967 35.1788 26.3655 32.7856 27.8177C30.3923 29.2698 28.4542 31.3484 27.1867 33.8223C25.9192 36.2962 25.3721 39.0685 25.6061 41.8308C25.8401 44.5932 26.8461 47.2373 28.5123 49.4693L41.4115 36.7462C41.6201 36.5254 41.8716 36.3482 42.1511 36.2254C42.4306 36.1025 42.7323 36.0364 43.0383 36.0311C43.3442 36.0258 43.6481 36.0813 43.9318 36.1944C44.2155 36.3074 44.4732 36.4757 44.6896 36.6892C44.906 36.9026 45.0765 37.1569 45.1911 37.4368C45.3057 37.7167 45.362 38.0165 45.3566 38.3183C45.3512 38.6201 45.2842 38.9178 45.1597 39.1936C45.0352 39.4693 44.8556 39.7175 44.6318 39.9233L31.7356 52.6493ZM20.9963 40.5826C20.9963 38.8083 21.2394 37.0879 21.689 35.4544L13.3102 27.1852C13.0864 26.9794 12.9068 26.7312 12.7823 26.4555C12.6578 26.1797 12.5908 25.8821 12.5854 25.5802C12.58 25.2784 12.6363 24.9786 12.7509 24.6987C12.8655 24.4188 13.036 24.1645 13.2524 23.9511C13.4688 23.7376 13.7265 23.5693 14.0102 23.4563C14.2939 23.3432 14.5978 23.2877 14.9037 23.293C15.2097 23.2984 15.5114 23.3644 15.7909 23.4873C16.0704 23.6101 16.3219 23.7873 16.5305 24.0081L23.5725 30.9526C25.2962 27.9703 27.7844 25.4875 30.7877 23.7534C29.6222 21.5939 27.8832 19.7879 25.7571 18.5287C23.6309 17.2695 21.1977 16.6045 18.7178 16.6051H5.07429L5.0591 16.6171C5.05541 16.6216 5.05234 16.6267 5.04999 16.632L5.04695 16.647V30.0924C5.04668 32.071 5.48763 34.0253 6.33853 35.8169C7.18942 37.6085 8.42943 39.1934 9.97062 40.4594C11.5118 41.7253 13.3164 42.6412 15.2565 43.1422C17.1966 43.6431 19.2246 43.7168 21.1968 43.358C21.0636 42.4387 20.9966 41.5113 20.9963 40.5826Z" fill="#754E29"/>
</svg>
