<svg width="23" height="23" viewBox="0 0 23 23" fill="none" xmlns="http://www.w3.org/2000/svg">
<g id="icon">
<path id="icon_2" fill-rule="evenodd" clip-rule="evenodd" d="M16.5292 15.2448C17.7614 13.7045 18.4982 11.7506 18.4982 9.62459C18.4982 4.65176 14.4669 0.620483 9.49409 0.620483C4.52127 0.620483 0.48999 4.65176 0.48999 9.62459C0.48999 14.5974 4.52127 18.6287 9.49409 18.6287C11.6201 18.6287 13.574 17.8919 15.1143 16.6597L20.7821 22.3275C21.1728 22.7182 21.8063 22.7182 22.197 22.3275C22.5877 21.9368 22.5877 21.3033 22.197 20.9126L16.5292 15.2448ZM9.49409 16.6378C5.62079 16.6378 2.48086 13.4979 2.48086 9.62459C2.48086 5.75129 5.62079 2.61136 9.49409 2.61136C13.3674 2.61136 16.5073 5.75129 16.5073 9.62459C16.5073 13.4979 13.3674 16.6378 9.49409 16.6378Z" fill="#151618"/>
</g>
</svg>
