<svg width="23" height="19" viewBox="0 0 23 19" fill="none" xmlns="http://www.w3.org/2000/svg">
<g id="icon">
<path id="icon_2" fill-rule="evenodd" clip-rule="evenodd" d="M19.2728 1.32372C19.6214 1.24407 19.8644 1.16575 20.0635 1.0835C20.3425 0.968219 20.5738 0.830128 20.9392 0.597554C21.2463 0.402099 21.6399 0.385077 21.964 0.553239C22.288 0.721401 22.4901 1.04758 22.4901 1.40242C22.4901 2.44481 22.3554 3.29916 22.0435 4.05104C21.7812 4.68346 21.4126 5.19713 20.9717 5.66465C20.7855 8.90789 19.812 11.4548 18.3237 13.3844C16.7811 15.3844 14.7287 16.6651 12.5651 17.3823C10.408 18.0974 8.12869 18.2572 6.08677 18.0151C4.05823 17.7746 2.18311 17.1269 0.876118 16.1466C0.518195 15.8781 0.39238 15.411 0.569577 15.0085C0.746775 14.606 1.18263 14.3689 1.63151 14.4307C2.91748 14.6079 4.15537 14.326 5.17326 13.9228C4.97288 13.8177 4.78395 13.7039 4.60835 13.5867C3.68082 12.9675 2.93247 12.1269 2.59563 11.4772C2.45625 11.2084 2.45481 10.8923 2.59174 10.6223C2.66238 10.483 2.76568 10.3642 2.8911 10.2737C1.53684 9.19586 0.990059 7.70508 0.990059 6.70633C0.990059 6.40936 1.13193 6.12896 1.37466 5.94621C1.47671 5.86937 1.59181 5.8134 1.71315 5.77969C1.61181 5.49352 1.53317 5.20441 1.47323 4.92451C1.20746 3.68352 1.23105 2.28285 1.51991 1.16854C1.61877 0.787218 1.94771 0.501912 2.35135 0.447393C2.755 0.392875 3.15257 0.580055 3.35624 0.920513C4.43375 2.72161 6.42123 3.82252 8.27093 4.47465C9.14057 4.78126 9.946 4.97664 10.5497 5.09676C10.68 3.91968 11.0208 2.94898 11.5439 2.17799C12.2339 1.16081 13.1964 0.558989 14.2301 0.290641C16.0128 -0.172147 17.9909 0.355104 19.2728 1.32372ZM10.2385 7.00391C9.55339 6.87124 8.61178 6.64837 7.58419 6.28608C6.22697 5.80758 4.65095 5.06145 3.33079 3.90572C3.35441 4.1184 3.38796 4.32927 3.43189 4.53442C3.65314 5.56756 4.06426 6.14616 4.43727 6.32602C4.89348 6.54599 5.10491 7.06183 4.92794 7.52314C4.68834 8.14773 4.05816 8.19901 3.48557 8.06095C3.9461 8.72679 4.77384 9.39064 6.15446 9.61254C6.63064 9.68908 6.98215 10.0827 6.98993 10.5482C6.99771 11.0137 6.65955 11.4181 6.18617 11.5094L5.31571 11.6773C5.44887 11.7889 5.59307 11.8983 5.74677 12.0009C6.44368 12.4662 7.14343 12.6669 7.74752 12.5213C8.19997 12.4122 8.67054 12.6192 8.88169 13.0202C9.09285 13.4212 8.98852 13.9097 8.63024 14.1976C7.98632 14.7145 7.23432 15.1292 6.48064 15.4735C6.12682 15.6351 5.73141 15.7946 5.30196 15.935C5.63225 16.0029 5.97593 16.0587 6.33085 16.1008C8.10142 16.3108 10.0722 16.1692 11.915 15.5584C13.7514 14.9496 15.449 13.8798 16.7189 12.2333C17.9871 10.5891 18.8721 8.31374 18.9907 5.22417C19.0001 4.98093 19.1045 4.75009 19.283 4.57797C19.7326 4.14435 20.1042 3.64734 20.287 3.05574C19.9671 3.15191 19.6069 3.23515 19.1778 3.31425C18.8524 3.37425 18.5172 3.27489 18.283 3.04895C17.5184 2.31169 16.0064 1.82685 14.75 2.15303C14.1587 2.30654 13.6212 2.63888 13.2175 3.2339C12.8054 3.84142 12.4901 4.78784 12.4901 6.22419C12.4901 6.49708 12.3702 6.75718 12.1601 6.94003C11.6621 7.37353 10.824 7.1173 10.2385 7.00391Z" fill="#0F0F0F"/>
</g>
</svg>
