<svg width="19" height="23" viewBox="0 0 19 23" fill="none" xmlns="http://www.w3.org/2000/svg">
<path fill-rule="evenodd" clip-rule="evenodd" d="M9.48999 11.1205C12.2514 11.1205 14.49 8.65805 14.49 5.62048C14.49 2.58292 12.2514 0.120483 9.48999 0.120483C6.72857 0.120483 4.48999 2.58292 4.48999 5.62048C4.48999 8.65805 6.72857 11.1205 9.48999 11.1205ZM9.48999 8.92048C7.83314 8.92048 6.48999 7.44302 6.48999 5.62048C6.48999 3.79794 7.83314 2.32048 9.48999 2.32048C11.1468 2.32048 12.49 3.79794 12.49 5.62048C12.49 7.44302 11.1468 8.92048 9.48999 8.92048Z" fill="#151618"/>
<path fill-rule="evenodd" clip-rule="evenodd" d="M16.5929 13.2292C15.7504 12.3839 14.447 12.2016 13.4061 12.8192C13.2157 12.9322 13.0481 13.0356 12.8936 13.131C12.4837 13.3839 12.1655 13.5803 11.7553 13.7488C11.24 13.9606 10.5735 14.1205 9.48999 14.1205C8.41681 14.1205 7.73925 13.9696 7.21608 13.7652C6.75354 13.5845 6.38821 13.3575 5.90684 13.0583C5.81295 13 5.71447 12.9388 5.61018 12.8748C4.56586 12.2337 3.22463 12.3827 2.35414 13.2624C1.97442 13.6461 1.53035 14.1424 1.17489 14.6831C0.836022 15.1986 0.48999 15.8843 0.48999 16.6205V19.1208C0.48999 20.7778 1.83333 22.1205 3.48999 22.1205H15.49C17.1467 22.1205 18.49 20.7778 18.49 19.1208V16.6205C18.49 15.8746 18.1347 15.1797 17.7895 14.6596C17.427 14.1132 16.9752 13.6128 16.5929 13.2292ZM14.4267 14.5392C14.6659 14.3973 14.968 14.432 15.1763 14.641C15.5114 14.9773 15.8624 15.3726 16.1231 15.7655C16.4013 16.1846 16.49 16.4725 16.49 16.6205V19.1208C16.49 19.6729 16.0425 20.1205 15.49 20.1205H3.48999C2.93751 20.1205 2.48999 19.6729 2.48999 19.1208V16.6205C2.48999 16.4754 2.57548 16.1934 2.84612 15.7817C3.10016 15.3953 3.44357 15.0049 3.77578 14.6691C3.98411 14.4586 4.30105 14.4179 4.56388 14.5792C4.6466 14.63 4.73086 14.6826 4.81693 14.7364C5.29938 15.0375 5.83917 15.3745 6.48835 15.6281C7.28303 15.9385 8.21418 16.1205 9.48999 16.1205C10.7902 16.1205 11.7213 15.925 12.5154 15.5988C13.0906 15.3624 13.5979 15.0487 14.0458 14.7717C14.1779 14.69 14.3048 14.6115 14.4267 14.5392Z" fill="#151618"/>
</svg>
