<svg width="25" height="19" viewBox="0 0 25 19" fill="none" xmlns="http://www.w3.org/2000/svg">
<g id="icon">
<g id="icon_2">
<path fill-rule="evenodd" clip-rule="evenodd" d="M9.98613 4.25236C9.67663 4.0755 9.29638 4.07677 8.98806 4.2557C8.67975 4.43462 8.48999 4.76414 8.48999 5.12061V13.1206C8.48999 13.4771 8.67975 13.8066 8.98806 13.9855C9.29638 14.1644 9.67663 14.1657 9.98613 13.9888L16.9861 9.98885C17.2977 9.81081 17.49 9.47946 17.49 9.12061C17.49 8.76175 17.2977 8.4304 16.9861 8.25236L9.98613 4.25236ZM14.4744 9.12061L10.49 11.3974V6.84379L14.4744 9.12061Z" fill="#0F0F0F"/>
<path fill-rule="evenodd" clip-rule="evenodd" d="M0.48999 9.12061C0.48999 5.37087 0.48999 3.49601 1.44491 2.18168C1.7533 1.75721 2.12659 1.38392 2.55106 1.07552C3.86539 0.120605 5.74026 0.120605 9.48999 0.120605H15.49C19.2397 0.120605 21.1146 0.120605 22.4289 1.07552C22.8534 1.38392 23.2267 1.75721 23.5351 2.18168C24.49 3.49601 24.49 5.37087 24.49 9.12061C24.49 12.8703 24.49 14.7452 23.5351 16.0595C23.2267 16.484 22.8534 16.8573 22.4289 17.1657C21.1146 18.1206 19.2397 18.1206 15.49 18.1206H9.48999C5.74026 18.1206 3.86539 18.1206 2.55106 17.1657C2.12659 16.8573 1.7533 16.484 1.44491 16.0595C0.48999 14.7452 0.48999 12.8703 0.48999 9.12061ZM9.48999 2.12061H15.49C17.4094 2.12061 18.6883 2.12335 19.6573 2.22833C20.5889 2.32926 20.9939 2.50509 21.2533 2.69355C21.508 2.87859 21.732 3.10257 21.917 3.35725C22.1055 3.61665 22.2813 4.02173 22.3823 4.95329C22.4872 5.92228 22.49 7.20119 22.49 9.12061C22.49 11.04 22.4872 12.3189 22.3823 13.2879C22.2813 14.2195 22.1055 14.6246 21.917 14.884C21.732 15.1386 21.508 15.3626 21.2533 15.5477C20.9939 15.7361 20.5889 15.9119 19.6573 16.0129C18.6883 16.1179 17.4094 16.1206 15.49 16.1206H9.48999C7.57057 16.1206 6.29166 16.1179 5.32268 16.0129C4.39112 15.9119 3.98604 15.7361 3.72663 15.5477C3.47195 15.3626 3.24798 15.1386 3.06294 14.884C2.87447 14.6246 2.69865 14.2195 2.59772 13.2879C2.49274 12.3189 2.48999 11.04 2.48999 9.12061C2.48999 7.20119 2.49274 5.92228 2.59772 4.95329C2.69865 4.02173 2.87447 3.61665 3.06294 3.35725C3.24798 3.10257 3.47195 2.87859 3.72663 2.69355C3.98604 2.50509 4.39112 2.32926 5.32268 2.22833C6.29166 2.12335 7.57057 2.12061 9.48999 2.12061Z" fill="#0F0F0F"/>
</g>
</g>
</svg>
